<?xml version="1.0" encoding="UTF-8"?>
<svg id="Layer_1" xmlns="http://www.w3.org/2000/svg" version="1.1" viewBox="0 0 360 360">
  <!-- Generator: Adobe Illustrator 30.7.0, SVG Export Plug-In . SVG Version: 2.1.4 Build 114)  -->
  <defs>
    <style>
      .st0 {
        fill: #fff;
      }
    </style>
  </defs>
  <g>
    <path d="M166.68,0l-.16,3.37c.38,6.84,1.72,13.38,3.52,19.95l.5,2.9.78,2.16c-.08,1.53-.83,3.01-1.41,4.44-1.09,2.72-3.23,6.03-5.71,7.3-1.22.63-2.08,1.56-2.8,2.72-.84,1.37-1.86,2.4-3.04,3.45-2.21,1.95-4.02,4.39-6.58,5.87l-5.02,2.91c-3.92,2.28-8.1,3.83-11.86,6.41l-9.11,6.99c-2.06,1.58-4.23,3.83-4.63,6.57-.79,5.29-.79,10.72.25,16.02,1.28,6.56,3.21,12.8,5.73,18.98,2.27,5.57,5.42,10.52,8.6,15.59,1.85,3.58,3.42,7.07,5.71,10.47l-1.95,9.61c-.6,2.94-1.92,5.45-3.65,7.91-.55.78-.56,2.1-.92,2.92-.94,2.2-1.1,4.18-.39,6.52.22.72.43,1.33,1,1.94l.12,1.47c.83.91,1.12,1.97.89,3.16l-.75,3.81c-.35,1.78-.49,3.44.54,5.02l-1.17.37c-3.14-1.22-6.3-1.29-9.64-1.15-2.39-.65-4.71-1.04-7.18-1.04l-5.62-2.08-14.25-4.22-3.12-.5c-2.9-.91-5.32-2.52-7.84-4.15-3.24-2.09-6.1-4.31-8.93-6.92-2.64-2.43-5.34-4.81-8.76-6.1-4.91-1.86-10.1-2.55-15.31-2.66-3.88-.08-7.41.44-10.84,2.1-6.96,3.36-12.5,8.47-15.68,15.55l-1.71,3.8c-.73,1.63-1.64,3.23-3.12,4.37l-3.19,1.1-7.02-.17-5.24-.27c-2.57-.13-4.99-.54-7.46-.33v9.06c2.79.62,5.62.72,8.64.77l15.11.26c2.11.04,6.98-4.2,7.88-5.8l2.87-5.07,2.35-5.34c1.09-2.48,2.89-4.38,4.68-6.31,3.56-3.84,8.18-5.85,13.41-6.07,4.06-.17,7.88.81,10.84,3.63l6.14,5.85c3.15,3.01,6.13,5.84,9.81,8.19,3.25,2.08,6.31,4.22,9.92,5.67s7.32,2.17,11.17,2.71l16.87,2.37,4.35.27,6.98-.48c.78-.05,2.24-.93,2.99-.5l2.78,1.62,2.64,5.45,1.48,5.41c.56,3.25,1.17,6.24,2.27,9.34l2.89,8.2,1.57,3.19c.59,1.2,1.27,2.25,2.49,2.81,1.19,4.5,3.22,10.16,7.82,11.34.99.25,1.29.41,2.01,1.17l5.62,5.88c1.5,1.57,3.17,3.11,3.96,5.13l2.45,6.21,1.52,3.06c1.95,3.94,5.2,6.76,8.84,9.16l8.54,5.61c2.22,1.46,4.1,2.55,6.6,3.57l7.27,2.98c2.24.92,3.14,3.62,3.99,5.65-2.02,2.32-4.08,3.96-6.59,5.55l-2.21,2.07-6.34,4.96c-1.91,1.49-3.37,3.4-4.45,5.6-1.18,2.42-3.17,5.29-5.3,6.75-4.23,2.9-8.2,6.19-10.85,10.68l-3.04,5.15-3.21,4.93c-.87,1.33-1.46,3.06-1.83,4.62-1.34,5.57.88,11.23.62,13.89-.39,3.96-1.71,7.53-2.81,11.32l.04,3.33h30.26c.45-3.14.21-6.31-.34-9.55s-.77-6.73-.68-10.13c.04-1.5.49-2.86,0-4.33-.78-2.81-.71-5.62-.12-8.47-.05-.21-.17-1.04,0-1.28l2.79-3.82,5.47-5.38,7.36-7.74c1.86-1.96,3.8-3.56,5.94-5.12l4.46-3.23,3.23-2.54,3.92-3.04,3.39-2.59c1.9-1.45,2.76-3.69,3.95-5.66,2.22-3.68,3.97-7.46,4.18-11.84.06-1.31.06-2.73-.64-3.9-1.62-2.69-3.11-5.58-5.43-7.77l-6.4-4.6c-2.4-1.72-5.01-2.39-7.82-3.07l-3.01-.73-5.4-1.08-3.4-.98-7.56-1.27-5.8-3.62c-2.37-1.73-4.94-3.39-6.34-6.08l-2.52-6.41c-1.75-3.84-3.94-7.18-6.84-10.19l-5.66-5.87c-1.15-1.19-2.36-2.7-2.86-4.29-.94-2.98-1.84-5.77-3.39-8.52,1.5-1.28,1.67-2.98.89-4.68l-.4-3.63c-1.61-3.39-5.18-5.68-6.64-8.2s-3.59-4.32-6.63-5.22l-8.81-2.6-1.9-.62c1.59-1,3.12-1.92,4.74-2.53.83-.31,1.37-.32,2.07-.9,1.27-1.04,3.04-1.46,4.66-1.77,1.37-.26,2.35-.98,3.66-1.43l2.45-.83c.86-.67,1.52-1.3,2.45-1.68,1.79-.74,3.16-2.32,3.3-4.24-.26-.22-.75-.52-.69-.74l.23-.9c.17-.66.06-1.46.02-2.11-.2-3.2-1.39-3.04-3.17-4.98l2.22-4.31c.76-1.48,1.19-3.03,1.6-4.65l1.81-7.3,1.06-6.86c.28-1.81.69-3.61.55-5.5-.2-2.64-1.69-5.3-3.82-6.95l-10.52-8.17c-2.59-2.01-4.11-4.48-5.62-7.38l-3.35-6.44c-1.23-2.36-2.73-4.29-4.72-6.11.1-1.48-.23-3.76.94-4.69l2.95-2.36,3.25-1.8,7.31-3.72c1.38-.7,2.86-1.24,4.09-2.16l5.64-4.21,2.18-1.65,3.21-3.22,3.01-2.32,3.4-2.62c1.92-1.48,3.13-3.85,4.37-5.9l3.16-5.71c2.07-1.59,3.35-3.58,4.58-5.81l2.12-3.86c1.49-2.71,2.49-5.58,2.59-8.71.06-1.9-.62-3.56-1.21-5.27l-1.86-5.5c1.57-2.59,2.81-5.3,3.75-8.2,2.4-7.42-1.59-11.05-2.23-13.32-.49-1.72-.33-3.5-.49-5.15h-23.35Z"/>
    <path d="M223.96,360h3.57c.74-3.51,1.02-7.05,1.05-10.72.04-4.31,4.97-7.31,8.6-10.13l16.69-13.02,4.64-4.52c1.61-1.57,3.52-5.72,2.48-6.06-.79-.25-.74,1.46-2.76,3.4-2.05,1.97-4.13,3.7-6.6,5.18l-18.45,11.02c-5.97,3.57-11.3,6.61-11.71,14.54-.19,3.73.61,7.17,2.5,10.32Z"/>
    <path d="M261.88,275.65l1.69,16.55c2.3-3.2,3.2-6.45,4.58-9.68.8-2.8,1.58-5.5,1.67-8.44.19-6.56-.87-12.9-3.47-18.88-2.73-6.3-7.08-10.49-12.97-13.97-7.68-4.55-15.64-8.36-24.07-11.38l-10.77-3.18c-4.79-1.41-9.12-3.28-12.98-6.47l-6.04-3.84-.43-.07c-.11-.02-.39.21-.33.3.41.61,2.06,1.4,4.1,3.39l3.43,3.35c2.31,2.25,4.68,4.38,7.62,5.79l7.14,3.42,10.15,5.24c6.6,3.97,12.81,8.26,18.93,12.94,2.31,1.77,4.3,3.66,6.18,5.83,4.71,5.47,4.85,12.09,5.57,19.09Z"/>
    <path d="M193.26,121.85c1.32-.45,1.22-1.72,1.06-2.81-.77-5.11-1.98-10.09-1.83-15.36.16-5.42,1.48-10.54,2.65-15.79.21-.96.86-1.92,1.61-2.51l6.14-4.92c4.35-3.49,7.75-7.83,10.23-12.79l2.64-5.3c1.8-3.6,1.37-7.96.14-11.8-.36-.13-1.11.01-1.35.24l-3.9,3.83c-1.49,1.47-2.54,3.02-3.53,4.9-2.67,5.1-6.25,9.6-10.53,13.41l-3.07,2.73c-2.92,2.6-5.07,5.76-5.61,9.77-.79,5.85-1.41,11.71-.75,17.66.72,6.54,3.23,12.63,6.11,18.75Z"/>
    <path d="M171.3,173.36c1.04,1.78,3.91,3.44,4.7,3.3.24-.04.49-.55.53-.8l.84-6.66c.51-4.03-.61-6.61,0-10.02l4.11-2.42,3.44-2.29c1.51-1.01,2.4-2.42,3.3-3.94,1.59-2.68,2.33-5.5,1.91-8.71-.7-5.4-2.29-10.55-4.8-15.36-1.51-2.89-3.78-6.34-6.5-4.96-.55,2.85,1.08,2.58,1.77,3.94,2.32,4.59,3.55,9.54,3.78,14.72.14,2.96-.64,6.1-3.34,7.05-2.85,1.01-5.53,2.1-8.09,3.69-2.4,1.49-4.05,3.89-4.57,6.69-1.01,5.49.1,10.97,2.89,15.77Z"/>
    <path d="M191.75,54.1l-1.26,9.04c-.06.4.13.99.41,1.61l5.68-4.25c2.18-1.64,3.49-3.88,4.8-6.25,4.73-8.62,7.83-16.63,5.01-26.61l-3.18-9.79c-1.15-3.54-2.19-6.89-2.87-10.56-.3-1.62-1.66-3.57-2.85-3.36-.68.12.8,1.37.74,3.23l-.12,3.64.24,5.49,1.05,10.34c.77,7.59-1.76,13.83-5.24,20.41-1.16,2.2-2.04,4.45-2.41,7.06Z"/>
    <path d="M214,242.94c.36,0,.93-.27,1-.5s-.03-.8-.21-1.03l-4.25-5.07c-1.51-1.8-3.33-3.15-5.43-4.16l-8.75-4.22c-3.33-1.61-6.34-3.57-8.93-6.18l-3.84-3.86c-3.19-3.2-5.34-6.98-7.05-11.18l-1.88-4.62c-1.41-3.46-4.83-5.28-4.75-4.45l.09.97c1.66,1.63,2.43,3.68,2.96,5.95.87,3.5,1.55,6.89,2.96,10.25,2.43,5.82,5.69,11.11,9.63,15.99,3.66,4.53,9.01,7.46,14.13,10.14,2.36,1.24,4.76,2.11,7.48,2.07l6.84-.1Z"/>
    <path d="M205.03,351.9l.34.59c.08.14.56-.27.62-.47l2.71-8.19c1.67-5.07.89-11.05,2.77-15.32.81-1.85,2.66-3.13,4.2-4.36l8.42-6.72c3.41-3.17,6.4-6.57,9.01-10.41,2.05-3.01,4.25-7.87.95-8.41l.37,1.37c-.61,1.89-1.86,3.57-3.35,5.02-4.19,4.05-8.86,7.47-14.08,10.11l-7.5,3.8c-3,1.52-5.06,4.17-6.41,7.27s-1.78,6.25-2.04,9.58c-.22,2.75-.06,5.36.74,8.02l3.25,8.13Z"/>
    <path d="M170.72,114.4l3.11-.62c.37-.07.68-1.06.67-1.45l-.05-3.12c-.08-5.6-3.86-6.47-4.87-9.44-.59-1.73.06-3.37.58-4.97,1.7-5.18,5.08-9.21,9.55-12.28l5.28-3.62c1.87-1.28,3.57-3.28,3.64-5.72.03-.99-1.57-3.76-2.54-3.37-.8.32,1.61,2.91-.55,4.42-1.09.76-2.37,1.3-3.62,1.87l-7.74,3.53c-5.33,2.43-10.07,8.88-12.64,14.22-2.15,4.46-1.25,8.68.79,13.08,1.53,3.3,4.88,8.16,8.37,7.47Z"/>
    <path d="M243.51,291.43l-.1,4.66c2.13-.74,3.65-2.03,5.36-3.42,1.3-1.06,2.11-2.54,2.94-4.02,1.94-3.43,3.47-6.96,3.85-10.99.75-7.93-2.48-15.59-8.41-20.8-2.84-2.49-5.87-4.38-9.13-6.25-2.38-1.36-6.92-3.68-8.42-2.55-.27.2-.19,1.19.06,1.41s.77.4,1.21.64c5.16,2.77,13.05,9.59,15.29,14.88,1.97,4.66,1.58,10-.11,14.61l-1.69,4.6-.86,7.22Z"/>
    <path d="M216.24,35.71c-.83,2.69.91,8.03,3.11,6.32,2.39-1.86,4.46-6.23,4.08-9.16-.34-2.64-.95-5.16-1.56-7.74-.53-7.58-4.48-16.26-8.57-22.62-1.15-1.78-4.26-2.27-5.15-.84-.14,2.02.91,3.72,1.72,5.41,1.74,3.63,3.26,7.2,4.63,10.97l2.51,6.93c.32,2.54.49,5.05.36,7.63-.05,1.08-.82,2.11-1.13,3.11Z"/>
    <path d="M183.96,210.04l4.09,11.47c.76-3.12.7-5.94.6-8.88s-.79-5.5-1.95-8.16c-3.05-6.97-7.46-13.19-13.04-18.35-2.1-1.94-4.29-3.53-6.79-4.75-2.43-1.01-4.73-1.27-7.26-.37l-.25.8c2.32-.27,4.45.19,6.33,1.47,5.16,3.54,9.9,9.91,13.21,15.34,2.21,3.63,3.59,7.34,5.05,11.43Z"/>
    <path d="M228.59,320.73c-2.76,1.7-4.5,4.07-5.18,7.38,1.88-.12,3.79-.03,5.4-.94,5.66-3.23,10.54-7.35,14.92-12.16,3.05-3.35,5.89-6.63,8.32-10.4,1.12-2.01,2.08-3.93,1.6-6.24-.05-.06-.88-.17-.91.01l-.11.92c-.47,1.64-1.54,3.19-2.79,4.56-4.2,4.58-8.77,8.63-13.81,12.28l-7.43,4.59Z"/>
    <path d="M199.51,210.22c.36-.2.66-.9.64-1.39l-.23-5.56c-.12-2.81-.97-5.25-2.47-7.61-2.76-4.33-6.48-7.73-10.76-10.56-2.91-1.92-5.78-3.57-9.36-3.99-.1.85.41.97,1.05,1.27,1.39.65,2.74,1.51,3.93,2.55,9.7,8.47,10.07,17.97,13.62,21.61l3.58,3.68Z"/>
  </g>
  <circle class="st0" cx="355.56" cy="4.69" r="4.69"/>
  <circle class="st0" cx="4.69" cy="4.69" r="4.69"/>
  <circle class="st0" cx="355.56" cy="355.25" r="4.69"/>
  <circle class="st0" cx="5" cy="355.25" r="4.75"/>
</svg>