<?xml version="1.0" encoding="UTF-8"?>
<svg id="Layer_1" xmlns="http://www.w3.org/2000/svg" version="1.1" viewBox="0 0 360 360">
  <!-- Generator: Adobe Illustrator 30.7.0, SVG Export Plug-In . SVG Version: 2.1.4 Build 114)  -->
  <defs>
    <style>
      .st0 {
        fill: #fff;
      }
    </style>
  </defs>
  <g>
    <path d="M106.68,255.58c2.39,3.9,5.01,7.64,8.06,11,2.09,2.31,4.44,3.42,7.51,3.53,6.77.23,13.26,1.43,19.92,2.71l12.21,2.34c.87.16,1.68.11,2.6.11,2.79-.01,5.47,1.18,8.08,1.95,1.52.44,2.5.93,3.57,2.16.92,1.04,2.24,2.16,2.64,3.52l3.16,10.73c.59,2.02.7,4.15.7,6.29,0,1.84.45,3.53.98,5.23l2.32,7.6c1.32,4.31.8,8.56-1.4,12.56l-2.32,4.23c-.8,1.44-1.88,2.46-3.12,3.48-3.38,2.8-7.27,4.18-11.72,4.27-2.32.05-4.74.8-7.03,1.35-2.79,4.38-5.98,8.33-10.41,11.02-3.34,2.03-7.47,1.7-10.87.12-4.42-2.05-7.5-3.81-10.74-7.4-1.43-1.58-3.01-2.03-4.93-2.76l-8.11-3.06c-.78-.3-1.54-1.21-2.06-2.05-4.84-.08-9.59-.43-14.41-1.25l-9.82-1.68c-12.52-2.13-12.76-11.36-21.47-19.84-8.01-7.79-14.58-16.65-18.56-27.17-2.23-5.87-2.68-11.68-2.12-17.91l.89-9.92c.25-2.75-.76-5.19-1.91-7.61l-6.39-13.41c-2.99-6.28-4.08-12.91-3.86-19.87.11-3.28-.27-6.28-1.24-9.37l-4.77-15.3c-2.54-8.15-3.05-22.3-2.14-30.9.47-4.41,2.1-8.26,5.03-11.46,7.57-8.27,13.89-9.01,18.84-13.53,1.2-1.09,1.37-3.48.95-5.06l-4.15-15.35-4.16-7.67c-2.8-5.17-4.73-10.15-6.14-15.98-1.42-5.83-1.31-11.44.33-17.23.87-3.05,2.16-5.51,4.42-7.82l3.9-5.29c1.8-2.46,3.75-4.56,6.21-6.31.6-1.32,1.65-2.05,2.98-2.71l9.44-3.1,9.42-3.42,4.86-1.96c2.6-1.04,4.73-2.23,6.58-4.34,4.79-5.47,11.03-8.98,18.11-10.58l9.19-2.07,20.03-4.6,8.78-.56,15.81-.85,9.92-.36c11.72-.43,15.66,4.97,18.55,5.41,8.23,1.28,16.36,1.1,24.63.44,3.78-.3,7.19-.18,10.78.74,2.83.73,5.01,2.31,6.24,5.11,1.42,3.24,2.5,6.69,2.83,10.33.19,2.14-.32,4.37-.92,6.4-1.4,4.73-4.04,8.63-6.81,12.63-1.57,2.27-1.63,5.36-1.2,8.01.69,4.25.92,8.26.91,12.54-.03,8.86,1.28,16.73,10.26,19.56,2.99-.41,5.95-.92,8.42-2.58,3.27-2.18,6.55-3.93,9.96-5.85l7.19-4.07c4.25-2.4,8.31-5.28,13.12-6.57,1.79-.48,4.05-.45,5.92-.65,3.6-.37,7.05-.11,10.7-.11,3.37.01,6.5,1.83,9.15,4.08,4.52,3.82,9.14,7.17,14.4,9.96l7.17,3.04c2.14.91,3.71,2.13,4.84,4.14,2.39,4.27,3.85,8.79,4.38,13.67.43,3.93,2.17,6.97,4.81,9.73l5.96,6.25c2.62,2.75,4.11,5.81,4.7,9.56s1.52,7.53.65,11.36c-1.42,6.15-2.61,12.13-2.43,18.46.11,3.89.99,7.46,2.45,11.02l2.49,6.03c3.63,8.81-7.34,21.98-17.65,23.48-5.3.77-10.08,2.42-15.1,4.31-6.69,2.53-13.09,5.21-18.88,9.51l-6.97,6.22-4.81,5.07-3.97,3.96c-4.97,4.96-15.08,4.48-20.46,2.02l-12.19-5.58c-5.67-2.58-10.5-6.22-15.59-9.81l-8.89-6.26c-3.46-2.07-7.24-3.24-11.31-3.52-7.28-.49-14.14-1.94-20.85-4.89-5.83-2.56-11.16-5.51-16.62-8.75-3.05-1.81-6.13-3.6-9.66-4.16l-15.95-2.56c-2.57-.41-5.19-.38-7.69-.08-3.13.38-5.66,1.9-7.78,4.11-1.13,1.2-.96,2.71-1.33,4.25l-2.05,8.6c-.85,3.54-5.39,7.49-8.53,7.45l-6.95-.1c-1.04-.03-2.82.48-3.63,1.09-1.51,1.13-1.74,3.01-2.03,4.67-1.4,7.98,3.3,12.45,4.18,20.92.27,2.54.66,4.75,2.01,6.97h-.03ZM131.44,278.61l-11.38-.95c-4.75-.38-8.55-2.43-11.55-6.07-6.28-7.6-10.32-12.49-12.01-22.63-1.09-6.54-5.93-11.51-4.7-21.82.49-4.14,1.92-7.87,4.75-10.85,4.12.62,8.02.08,12.03-.6,1.63-.27,2.64-.82,4.01-1.63,5.84-3.43,1.98-6.51,3.35-9.84,1.06-2.58,1.74-5.26,3.49-7.46,2.64-3.34,6.4-5.77,10.51-6.91,3.04-.85,6.21-.7,9.3-.14l18.7,3.42c3.94.71,7.4,2.34,10.8,4.42,6.09,3.75,12.12,7.17,18.71,9.93,4.7,1.96,9.23,2.84,14.41,3.16,5.18.32,10.25,1.25,14.92,3.46,7.49,3.54,15.39,11.69,27.26,17.23l9.26,4.31c4.15,1.92,9.05,2.29,13.38.48,1.83-.77,3.17-2.61,4.55-3.98l10.22-10.19,6.04-4.53c5.8-3.82,11.97-6.44,18.41-8.96,4.73-1.84,9.18-3.43,14.23-4.23,1.65-.26,3.63-.7,5.08-1.51,2.98-1.66,5.41-4.14,7.19-6.92,1.24-1.94,1.15-4.03.4-6.04l-2.9-7.67c-3.04-8.06-1.25-20.7.98-29.39.29-1.13.62-2.61.45-3.74l-1.37-9.05-8.48-9.42c-8.04-8.93-4.78-16.91-10.08-23.56-.49-.63-1.54-1.33-2.31-1.58l-6.48-2.16c-6.42-2.13-11.98-5.88-17.39-9.92-8.66-6.47-21.07-1.69-29.94,3.54-3.43,2.03-6.73,3.7-10.43,5.11-6.15,2.36-11.47,7.89-18.97,6.99-4.18-.49-8.48-2.89-10.96-6.33-3.96-5.5-5.5-12.2-5.32-18.93.14-4.99.11-9.66-.59-14.48-.7-4.82.48-9.45,3.21-13.41,2.36-3.43,4.14-7.12,4.56-11.38.18-1.77-.49-3.65-1.02-5.3-.85-2.75-3.08-4.56-6.02-4.4l-6.94.4c-8.37.48-16.55.85-24.88-.08-3.19-.36-6.02-1.52-8.71-3.15-4.05-2.45-12.96-1.04-18.79-.59l-14.38,1.1-8.63.6-18.57,4.08-12.42,2.12c-3.43.58-6.87,1.15-9.74,3.13l-8.01,5.51-4.82,3.15c-1.66,2.1-3.37,4.37-5.88,5.56-5.29,2.51-11.8.15-14.82,3.43l-3.43,3.74c-1.29,1.4-2.53,2.78-3.5,4.41-1.61,2.72-3.26,5.11-5.43,7.53-.76,2.49-1.4,5.28-1.2,7.97.95,12.78,9.52,19.89,11.72,28.19l3.87,14.6c.99,3.71,1.06,7.94-.78,11.25l-2.6,4.68c-1.51,2.71-4.67,4.33-7.45,5.65l-6.29,2.98c-3.46,1.63-6.26,3.85-8.71,6.87-.78,3.15-1.1,6.26-1.04,9.56.1,6.39.18,12.64,1.65,18.86l4.66,15.85c1.4,4.79,2.35,9.36,2.06,14.41-.32,5.47.7,10.52,2.98,15.46l6.17,13.31c1.73,3.74,2.56,7.64,2.36,11.8l-1.24,10.25c-.67,5.61-.33,10.89,1.95,16.1,3.46,7.87,8.33,14.77,14.29,20.95,3.42,3.53,6.17,6.9,8.82,11.31,2.65,4.41,6.03,7.8,11.11,8.68l7.32,1.26c5.04.88,9.95,1.51,15.11,1.35,1.11-.54,2.38-.67,3.68-.4,5.18,1.07,10.14,2.58,14.88,4.93l2.27,1.62c.89,1.63,2.64,2.87,4.26,3.72l4.37,2.28c1.18.62,2.97-.41,3.67-1.47l5.88-8.92c1.11-1.7,2.43-2.53,4.26-3.43l2.34-1.15,6.58-1.31c2.25-.44,4.71-.37,6.7-1.62,2.36-1.47,2.97-4.38,2.64-6.98l-.63-5.03-1.9-8.7-1.79-4.66c-.87-2.24-1.87-3.86-3.2-5.76l-3.26-6.33-12.71-2.8-12.19-2.39h.01Z"/>
    <path d="M174.81,271.85c-.65-.07-1.17-.22-1.69-.47.93-.01,1.28.14,1.69.47Z"/>
    <path class="st0" d="M131.41,278.58l12.19,2.39,12.71,2.8,3.26,6.33c1.33,1.9,2.35,3.52,3.2,5.76l1.79,4.66,1.9,8.7.63,5.03c.32,2.61-.29,5.51-2.64,6.98-1.99,1.24-4.44,1.17-6.7,1.62l-6.58,1.31-2.34,1.15c-1.83.91-3.15,1.74-4.26,3.43l-5.88,8.92c-.7,1.06-2.49,2.09-3.67,1.47l-4.37-2.28c-1.63-.85-3.37-2.09-4.26-3.72l-2.27-1.62c-4.74-2.35-9.7-3.86-14.88-4.93-1.29-.26-2.57-.14-3.68.4-5.17.15-10.07-.48-15.11-1.35l-7.32-1.26c-5.08-.88-8.46-4.29-11.11-8.68-2.53-4.19-5.41-7.78-8.82-11.31-5.96-6.18-10.83-13.08-14.29-20.95-2.28-5.21-2.62-10.5-1.95-16.1l1.24-10.25c.19-4.16-.63-8.08-2.36-11.8l-6.17-13.31c-2.28-4.93-3.28-9.99-2.98-15.46.29-5.06-.66-9.62-2.06-14.41l-4.66-15.85c-1.47-6.24-1.55-12.47-1.65-18.86-.04-3.31.26-6.43,1.04-9.56,2.45-3.02,5.25-5.23,8.71-6.87l6.29-2.98c2.79-1.31,5.93-2.94,7.45-5.65l2.6-4.68c1.84-3.32,1.77-7.54.78-11.25l-3.87-14.6c-2.21-8.3-10.77-15.41-11.72-28.19-.21-2.69.44-5.5,1.2-7.97,2.16-2.42,3.81-4.81,5.43-7.53.98-1.63,2.21-3.01,3.5-4.41l3.43-3.74c3.02-3.28,9.53-.92,14.82-3.43,2.51-1.2,4.22-3.46,5.88-5.56l4.82-3.15,8.01-5.51c2.87-1.96,6.31-2.54,9.74-3.13l12.42-2.12,18.57-4.08,8.63-.6,14.38-1.1c5.85-.44,14.75-1.85,18.79.59,2.69,1.62,5.52,2.79,8.71,3.15,8.33.93,16.5.56,24.88.08l6.94-.4c2.94-.16,5.15,1.65,6.02,4.4.51,1.65,1.2,3.53,1.02,5.3-.43,4.26-2.18,7.94-4.56,11.38-2.73,3.96-3.92,8.52-3.21,13.41s.71,9.49.59,14.48c-.18,6.73,1.35,13.44,5.32,18.93,2.49,3.43,6.79,5.84,10.96,6.33,7.5.89,12.82-4.62,18.97-6.99,3.7-1.43,7.01-3.09,10.43-5.11,8.86-5.23,21.28-10.03,29.94-3.54,5.4,4.04,10.98,7.79,17.39,9.92l6.48,2.16c.76.26,1.8.95,2.31,1.58,5.3,6.65,2.05,14.63,10.08,23.56l8.48,9.42,1.37,9.05c.16,1.11-.16,2.61-.45,3.74-2.21,8.68-4.01,21.32-.98,29.39l2.9,7.67c.76,2.02.84,4.11-.4,6.04-1.77,2.79-4.2,5.26-7.19,6.92-1.46.81-3.43,1.25-5.08,1.51-5.04.8-9.49,2.39-14.23,4.23-6.46,2.51-12.61,5.14-18.41,8.96l-6.04,4.53-10.22,10.19c-1.37,1.36-2.72,3.21-4.55,3.98-4.33,1.83-9.23,1.46-13.38-.48l-9.26-4.31c-11.87-5.54-19.77-13.68-27.26-17.23-4.67-2.21-9.82-3.16-14.92-3.46-5.1-.3-9.71-1.18-14.41-3.16-6.59-2.76-12.63-6.18-18.71-9.93-3.41-2.09-6.86-3.7-10.8-4.42l-18.7-3.42c-3.09-.56-6.26-.7-9.3.14-4.11,1.14-7.87,3.59-10.51,6.91-1.73,2.2-2.43,4.88-3.49,7.46-1.37,3.31,2.49,6.4-3.35,9.84-1.37.8-2.38,1.36-4.01,1.63-4.01.69-7.91,1.22-12.03.6-2.83,2.98-4.26,6.72-4.75,10.85-1.24,10.29,3.61,15.28,4.7,21.82,1.69,10.14,5.73,15.03,12.01,22.63,3.01,3.63,6.8,5.67,11.55,6.07l11.38.95h-.01ZM169.92,58.31c1.9-.32,3.52.32,5.12,1.33,5.08,3.53,10.7,5.78,16.87,6.7l1.03-.34c.26-.08-.38-.74-.66-.92-5.73-1.58-10.84-4.16-15.5-7.83-1.95-1.52-3.96-2.25-6.44-2.58-3.72-.49-2.05,2.25-5.8,3.54l-7.62,2.62c4.95,2.9,10.1,1.95,13.01-2.54h-.01ZM114.02,60.94l9.12,4.12c4.33,1.96,11.05,4.16,12.34.11-1.91-1.18-4.51.26-8.59-2.21l-8.23-4.97c-3.06-1.84-6.65-3.39-7.9-.82-1.65,3.38-5.03,2.6-9.93,4.88l-3.74,1.74c6.44,2.9,12.67,3.19,16.93-2.84h0ZM126.26,85.57c6.21,2.42,14.41.69,17.2-5.18l8.64,4.49c1.81.95,7.01,2.14,8,1.33.3-.25.49-1.04.49-1.59-4.29-1.04-8.15-2.6-11.81-4.96l-4.63-2.99c-.85-.55-2.32-.66-3.12-.21l-.41,2.69c-2.23,4.03-9.07,3.46-14.36,6.43h0ZM70.93,86.06c4.03-.1,6.59-2.73,7.5-6.4,1.39.19,2.75.55,3.79,1.18l5.37,3.26c3.71,2.25,8.37,3.42,12.82,1.8-2.56-.96-5.15-.81-7.5-1.83-6.53-2.83-9.53-7.83-15.39-7.83-3.37,0-1.36,4.36-4.66,5.33l-9,2.68c2.29,1.29,4.63,1.9,7.08,1.83h-.01ZM184.05,95.52c3.76,2.71,7.67,4.85,11.71,7.08l6.83,3.2c.58-.47,1.1-1.24,1.1-1.77l-7.89-4.77c-3.63-2.2-7.03-4.46-10.19-7.31-1.21-1.09-3.26-2.16-4.51-.78-.01,3.81-1.46,6.98-4.68,8.94l-8.85,5.4c7.73,1.24,14.49-2.49,16.49-10h0ZM123.78,102.17c3.92,1.77,7.87,2.82,11.97,3.35l5.32.7c.33.04.85.07,1.11.04.33-.03.33-1.25-.03-1.33l-4.4-1.04c-5.65-.92-10.69-2.71-15.61-5.52l-4.74-2.21c-.47-.22-1.73-.03-2.07.3-1.24,1.17-.77,5.33-4.88,6.55l-8.11,2.43c1.87.84,3.61,1.09,5.52,1.15,4.59.15,8.02-2.83,9.12-7.47l6.77,3.06h.01ZM293.99,120.89l6.87,1.25c.87.15,1.46.85,2.09,1.7.12-.19.54-.87.67-1.18.15-.37-.6-1.18-.99-1.36-6.15-2.91-14.14-2.14-21.17-9.47l-6.33-6.59c-.93-.99-3.32-2.39-4.12-.67-.93,1.99-.95,4.62-2.82,6.17l-6.58,5.43c6,.36,9.45-2.47,11.55-8.06l6.31,6.02c3.98,3.81,8.92,5.77,14.49,6.77h.03ZM82.24,117.91l8.27,4.81c4.93,2.87,13.57,5.83,18.33,4.31.18-.05.56-.65.62-.81.08-.21-.58-.51-.87-.49-7.3.51-13.6-3.49-19.62-7.38l-6.03-3.89c-.74-.48-2.78-.32-3.08.44-.23,2.21-1.24,3.71-3.46,4.22l-8.53,1.94,4.14,1.46c3.32,1.17,8.97-.22,10.24-4.6h0ZM160.47,125.82c5.21,3.43,10.74,5.56,16.76,6.47.56.08,1.51-.07,1.85-.34.4-.33.69-1.4.52-2.06-6.4-1.31-12.24-3.74-17.59-7.42l-7.24-4.97c-1.09-.74-2.43-1.29-3.74-1.47-1.17-.16-2.2.7-2.45,1.72-.62,2.56-2.21,4.18-3.83,6.09l-4.09,4.84c5.22-.73,8.61-4.04,10.51-8.97l9.29,6.11h0ZM219.87,122.36l8.64,5.12c4.68,3.13,9.8,4.9,15.48,4.9l.74-.48c.22-.14-.52-.7-.76-.82-5.54-.76-10.32-2.94-14.71-6.33-3.23-2.12-7.94-6.35-10.52-5.34-1.84.71-1.2,3.89-5.72,5.76l-10.34,4.27,4.77.19c4.89.19,10.61-2.01,12.43-7.27h-.01ZM305.69,134.96l6.29,4.74,7.34,5.11c.26.19,1.24.32,1.28.05l.16-1.02c-3.27-2.24-5.95-4.48-8.81-7.12l-4.99-4.25c-.41-.34-1.77-.4-2.25-.25-1.7.54-2.4,5.18-6.54,6.83l-11.36,4.51c8.24,1.17,15.59-.59,18.86-8.61h.01ZM208.56,145.65c4.18,2.36,7.94,4.56,12.52,6.11s9.12,2.9,14.11,3.43c-1.69-1.88-3.94-2.25-6.02-2.94-6.32-2.09-12.02-4.89-17.75-8.3l-9.96-5.92c-.37-.22-1.47-.19-1.87-.07-1.54.49-.45,5.01-5.07,7.27l-8.5,4.16c7.2,1.2,13.09-1.68,14.99-8.08l7.57,4.31h-.01ZM270.92,141.75c7.23,4.12,15,6.98,23.45,6.42-.66-.91-1.58-1.15-2.54-1.28-7.25-.98-13.71-3.79-19.62-8.04-.82-.59-2.76-1.03-3.2.04-1.06,2.6-2.43,4.89-5.26,5.72l-10.19,2.94c6.8,2.68,14.37,1.14,17.37-5.8ZM137.56,144.77l9.78,5.85c4.48,2.68,14.32,6.1,18.37,3.12-5.52-.43-10.37-1.29-14.75-4.08l-10.88-6.92c-1.46-.93-3.5-2.03-5.17-1.42s-2.76,2.56-4.31,3.27l-9.37,4.33c6.14,1.14,9.81-.19,13.78-4.23.54-.55,1.76-.4,2.56.08h0ZM77.75,147.23l7.21,4.45c4.85,2.38,9.81,3.74,15.24,3.12.33-.29.77-.81.89-1.11s-.88-.7-1.2-.77c-5.15-.34-9.73-2.03-14.04-4.73l-5.26-3.68c-1.88-1.32-4.4-2.46-6.69-1.52l-4.48,2.73-9.33,4.45c5.8,1.39,9.41.73,13.64-2.69,1.26-1.02,2.56-1.14,4.03-.23h-.01ZM108.21,163.69l4.07,2.27c3.49,1.95,7.05,3.3,10.95,4.22l7.53,1.77c.33.07,1.02-.08,1.28-.27s.19-1.24-.18-1.36l-7.27-2.46c-4.15-1.42-7.9-2.93-11.49-5.37l-4.64-2.34c-.74-.37-2.64.15-2.83.93l-.95,3.82c-.45,1.83-1.74,3.7-3.65,4.16l-7.39,1.81c4.66,2.6,9.6,2.36,12.21-1.5,1.18-1.76,1.69-3.35,2.35-5.7h.01ZM290.79,169.15c7.76-.63,9.95-6.9,14.29-4.42,4.85,2.76,10.03,8.45,12.35,7.91.21-.05.11-.7.04-.84l-6.42-5.51c-3.59-3.61-7.72-6.83-12.08-4-2.45,1.66-5.03,2.57-7.84,3.39l-8.22,2.4c2.69.98,5.26,1.26,7.86,1.06h.01ZM177.16,165.06c5.88,2.47,9.82,6.4,16.4,9.58,4.05,1.96,10.77,4.07,10.24.36-3.49-.95-6.84-1.77-9.81-3.72l-9.37-6.14c-1.83-1.21-3.78-2.39-5.74-3.09-2.28-.78-3.63.21-4.89,1.92l-5.06,6.86c4.63-.18,5.65-3.12,8.24-5.74h-.01ZM212.44,174.8c10,1.95,11.9-5.96,15.41-4.75,8.09,2.79,15.83,5.89,23.86,9.51-.58-2.06-2.53-2.89-4.2-3.79-6.09-3.28-12.31-6.06-18.73-8.6-4.26-1.7-5.55,2.07-10.41,4.57l-5.93,3.05h0ZM50.05,178.52c2.39-3.31,7.03.11,11.33,2.34l7.19,3.72c2.83,1.47,11.39,3.21,11.75.21-4.46-.41-8.42-1.26-12.13-3.46l-8.06-4.77c-4.46-2.65-9.44-4.4-12.23-.21-1.07,1.59-2.62,2.79-4.36,3.52l-4.51,1.88c4.71,2.47,7.97.99,11.02-3.23h0ZM167.65,183.63l18.45,8.05c5.01,2.18,14.66,5.19,19.12,2.21-6.5-.43-11.92-1.8-17.46-4.51l-16.61-8.13c-1.83-.88-3.74-1.55-5.69-1.85-2.72-.41-3.56,4.27-5.87,5.03l-9.2,3.02,4,.98c4.34,1.06,8.57-1.14,10.58-5.26.76-.04,1.83.1,2.68.47h0ZM258.13,190.02c6.51-1.62,9.15-7.91,13.56-6.09l8.15,3.37,12.16,5.34,1.18-.05c.26-.01.29-.93.14-1.15l-14.05-7.12c-5.18-2.62-9.99-5.47-14.44-1.73-1.83,1.42-3.71,2.75-5.83,3.67l-8.64,3.76c2.82.6,5.29.62,7.79,0h-.01ZM90.25,195.19c4.6,2.07,7.08,6.03,12.42,7.68,1.17.36,2.35.26,2.93-.84-5.98-1.55-9.26-6.79-13.55-9.19-1.72-.96-3.41-.19-4.26,1.29-1.36,2.35-3.49,3.92-6.1,4.49l-10.45,2.32c2.69.99,5.04,1.18,7.58,1.39,4.92-.27,8.97-2.45,11.43-7.16h0ZM223.96,204.89c6.79.69,12.71-3.12,17.31-.76l7.39,3.81c4.84,2.5,9.44,5.55,15.1,6.69-3.41-2.73-7.17-4.26-10.72-6.44l-9.19-5.66c-3.06-1.9-6.47-2.24-10.06-1.85l-10.54,1.13-8.86.81c3.35,1.22,6.31,1.94,9.58,2.27h-.01ZM49.85,219.16c6.03-.96,8.42-7.83,9.42-8.06,1.37-.3,5.98,3.98,10.59,6.1,2.89,1.32,6.13,2.75,9.38,1.62-4.38-1.5-8.11-3.04-11.55-5.65l-5.96-4.51c-2.13-1.61-4.49-.56-5.76,1.48-1.11,1.8-2.54,3.87-4.6,4.55l-7.5,2.46c1.77,1.2,3.9,2.36,5.98,2.03v-.03ZM80.85,242.35l7.06,5.7c1.92,1.54,4.89,4.14,6.07,3.31.3-.22.55-.93.49-1.22-5.04-2.95-7.98-8.22-12.79-10.67-4.96-2.54-5.78,3.72-9.44,5.32l-5.51,2.4c7.09,4.18,10.89-4.48,12.39-5.15.33-.15,1.36.01,1.72.3h0ZM54.97,250.63l17.69,10.95c1.65,1.02,5.37,2.13,5.89.87l-5.81-2.91-15.52-10.17c-.98-.65-2.87-1.15-3.54.01-1.44,2.46-.11,7.62-5.44,12.97,4.97-.48,5.66-6.8,6.73-11.72h0ZM74.35,283.06c8.78,4.16,9.42-4.82,13.68-4.11,2.99.49,5.81,1.58,8.57,2.9l8.48,4.05c1.66.8,3.46,1.37,5.48,1.24l-9.05-4.9-8.05-4.49-6.03-1.69c-1.32-.37-2.8.44-3.72,1.35l-2.99,2.95c-1.62,1.59-4.09,1.74-6.37,2.71h.01ZM125.05,293.14c3.2,2.06,6.28,3.85,9.69,5.33,4.77,1.63,9.59,2.4,14.63,2.47l.74-.55c.15-.11-.37-.69-.56-.73l-4.56-.93c-14.45-2.94-16.98-10.04-22.3-9.89-1.25.03-2.56,1.15-3.42,2.01-1.81,1.79-3.71,2.76-6,3.63l-5.77,2.2c5.83,2.64,9.82,1.06,13.96-3.21,1.03-1.06,2.28-1.15,3.6-.3h0ZM81.06,301.51l5.7-2.73,10.62,4.41c7.49,3.54,15.02,6.13,23.14,7.82,2.58.54,4.95,1.95,7.8,1.09l-10.04-3.43c-6.51-2.23-12.68-4.48-18.84-7.57l-10.98-4.84c-1.88-.84-3.79-.6-5.43.65l.74.91c-4.71,1.81-9.12,2.84-14.19,4.04,1.35,1.42,3.21,1.13,3.21,2.39,2.75-.49,5.61-1.47,8.24-2.73h.01Z"/>
    <path d="M114.02,60.94c-4.26,6.03-10.48,5.74-16.93,2.84l3.74-1.74c4.9-2.29,8.28-1.5,9.93-4.88,1.26-2.56,4.85-1.02,7.9.82l8.23,4.97c4.08,2.47,6.66,1.04,8.59,2.21-1.29,4.05-8.01,1.85-12.34-.11l-9.12-4.12h0Z"/>
    <path d="M164.97,183.17c-1.99,4.12-6.22,6.32-10.58,5.26l-4-.98,9.2-3.02c2.32-.77,3.15-5.44,5.87-5.03,1.96.3,3.87.96,5.69,1.85l16.61,8.13c5.52,2.71,10.96,4.08,17.46,4.51-4.46,2.98-14.12-.03-19.12-2.21l-18.45-8.05c-.85-.38-1.92-.51-2.68-.47Z"/>
    <path d="M160.47,125.8l-9.29-6.11c-1.9,4.93-5.29,8.23-10.51,8.97l4.09-4.84c1.62-1.91,3.21-3.52,3.83-6.09.25-1,1.28-1.88,2.45-1.72,1.31.19,2.67.73,3.74,1.47l7.24,4.97c5.36,3.68,11.18,6.11,17.59,7.42.15.66-.12,1.73-.52,2.06-.34.29-1.29.43-1.85.34-6-.92-11.55-3.05-16.76-6.47h0Z"/>
    <path d="M81.03,301.48c-2.65,1.26-5.51,2.24-8.24,2.73,0-1.26-1.87-.98-3.21-2.39,5.07-1.2,9.49-2.23,14.19-4.04l-.74-.91c1.63-1.24,3.54-1.47,5.43-.65l10.98,4.84c6.15,3.09,12.32,5.34,18.84,7.57l10.04,3.43c-2.86.87-5.21-.55-7.8-1.09-8.12-1.69-15.65-4.27-23.14-7.82l-10.62-4.41-5.7,2.73h-.01Z"/>
    <path d="M184.05,95.49c-1.99,7.53-8.75,11.24-16.49,10l8.85-5.4c3.23-1.96,4.68-5.14,4.68-8.94,1.24-1.37,3.3-.3,4.51.78,3.16,2.86,6.57,5.12,10.19,7.31l7.89,4.77c-.01.55-.52,1.31-1.1,1.77l-6.83-3.2c-4.03-2.23-7.94-4.38-11.71-7.08h0Z"/>
    <path d="M208.59,145.62l-7.57-4.31c-1.9,6.4-7.79,9.27-14.99,8.08l8.5-4.16c4.62-2.25,3.53-6.77,5.07-7.27.41-.12,1.5-.15,1.87.07l9.96,5.92c5.73,3.41,11.43,6.21,17.75,8.3,2.07.69,4.33,1.04,6.02,2.94-4.97-.54-9.66-1.94-14.11-3.43s-8.35-3.74-12.52-6.11h.01Z"/>
    <path d="M77.78,147.25c-1.47-.91-2.75-.8-4.03.23-4.25,3.42-7.84,4.08-13.64,2.69l9.33-4.45,4.48-2.73c2.29-.93,4.81.21,6.69,1.52l5.26,3.68c4.31,2.69,8.87,4.37,14.04,4.73.32.07,1.33.47,1.2.77s-.56.81-.89,1.11c-5.43.63-10.39-.74-15.24-3.12l-7.21-4.45h.01Z"/>
    <path d="M293.93,120.89c-5.56-1.02-10.51-2.97-14.49-6.77l-6.31-6.02c-2.1,5.58-5.55,8.42-11.55,8.06l6.58-5.43c1.88-1.55,1.9-4.18,2.82-6.17.8-1.72,3.19-.3,4.12.67l6.33,6.59c7.03,7.32,15.02,6.55,21.17,9.47.38.18,1.14.99.99,1.36-.12.33-.54,1-.67,1.18-.63-.85-1.22-1.55-2.09-1.7l-6.87-1.25h-.03Z"/>
    <path d="M125.05,293.17c-1.33-.85-2.57-.76-3.6.3-4.14,4.27-8.13,5.85-13.96,3.21l5.77-2.2c2.29-.88,4.19-1.85,6-3.63.87-.85,2.17-1.96,3.42-2.01,5.32-.15,7.86,6.94,22.3,9.89l4.56.93c.19.03.71.62.56.73l-.74.55c-5.04-.07-9.86-.85-14.63-2.47-3.41-1.48-6.48-3.27-9.69-5.33h0Z"/>
    <path d="M108.18,163.66c-.66,2.35-1.15,3.94-2.35,5.7-2.61,3.86-7.56,4.09-12.21,1.5l7.39-1.81c1.91-.47,3.2-2.32,3.65-4.16l.95-3.82c.19-.78,2.09-1.31,2.83-.93l4.64,2.34c3.59,2.45,7.34,3.97,11.49,5.37l7.27,2.46c.37.12.43,1.15.18,1.36s-.95.36-1.28.27l-7.53-1.77c-3.89-.92-7.46-2.27-10.95-4.22l-4.07-2.27h-.01Z"/>
    <path d="M50.05,178.52c-3.06,4.22-6.31,5.7-11.02,3.23l4.51-1.88c1.74-.73,3.28-1.92,4.36-3.52,2.78-4.18,7.75-2.45,12.23.21l8.06,4.77c3.71,2.2,7.67,3.06,12.13,3.46-.36,3.01-8.92,1.25-11.75-.21l-7.19-3.72c-4.3-2.23-8.93-5.65-11.33-2.34h0Z"/>
    <path d="M177.19,165.09c-2.61,2.61-3.61,5.56-8.24,5.74l5.06-6.86c1.26-1.72,2.61-2.71,4.89-1.92,1.96.7,3.9,1.88,5.74,3.09l9.37,6.14c2.97,1.95,6.32,2.78,9.81,3.72.54,3.71-6.17,1.61-10.24-.36-6.58-3.17-10.52-7.12-16.4-9.58h.01Z"/>
    <path d="M82.24,117.91c-1.26,4.38-6.91,5.77-10.24,4.6l-4.14-1.46,8.53-1.94c2.23-.49,3.23-2.01,3.46-4.22.29-.76,2.34-.92,3.08-.44l6.03,3.89c6.02,3.89,12.32,7.89,19.62,7.38.29-.01.95.29.87.49-.05.16-.43.76-.62.81-4.75,1.51-13.39-1.44-18.33-4.31l-8.27-4.81h0Z"/>
    <path d="M219.9,122.36c-1.84,5.26-7.56,7.46-12.43,7.27l-4.77-.19,10.34-4.27c4.52-1.87,3.87-5.04,5.72-5.76,2.58-1,7.3,3.23,10.52,5.34,4.4,3.39,9.19,5.59,14.71,6.33.22.12.96.69.76.82l-.74.48c-5.67-.01-10.8-1.79-15.48-4.9l-8.64-5.12h.01Z"/>
    <path d="M223.99,204.86c-3.27-.33-6.24-1.04-9.58-2.27l8.86-.81,10.54-1.13c3.59-.38,6.99-.03,10.06,1.85l9.19,5.66c3.53,2.17,7.3,3.71,10.72,6.44-5.66-1.15-10.25-4.19-15.1-6.69l-7.39-3.81c-4.6-2.36-10.52,1.46-17.31.76h.01Z"/>
    <path d="M137.56,144.77c-.8-.48-2.02-.62-2.56-.08-3.97,4.04-7.64,5.37-13.78,4.23l9.37-4.33c1.55-.71,2.64-2.65,4.31-3.27s3.71.48,5.17,1.42l10.88,6.92c4.38,2.79,9.23,3.65,14.75,4.08-4.05,2.98-13.89-.44-18.37-3.12l-9.78-5.85h0Z"/>
    <path d="M126.26,85.6c5.3-2.95,12.13-2.39,14.36-6.43l.41-2.69c.8-.47,2.27-.34,3.12.21l4.63,2.99c3.67,2.36,7.53,3.92,11.81,4.96,0,.54-.19,1.35-.49,1.59-.99.81-6.18-.38-8-1.33l-8.64-4.49c-2.79,5.85-10.99,7.58-17.2,5.18h0Z"/>
    <path d="M258.16,190.02c-2.5.62-4.97.6-7.79,0l8.64-3.76c2.12-.92,4-2.25,5.83-3.67,4.45-3.74,9.26-.89,14.44,1.73l14.05,7.12c.15.21.11,1.15-.14,1.15l-1.18.05-12.16-5.34-8.15-3.37c-4.4-1.83-7.05,4.46-13.56,6.09h.01Z"/>
    <path d="M70.96,86.09c-2.45.07-4.78-.54-7.08-1.83l9-2.68c3.28-.99,1.29-5.33,4.66-5.33,5.85-.01,8.86,5,15.39,7.83,2.34,1.02,4.95.85,7.5,1.83-4.46,1.62-9.12.45-12.82-1.8l-5.37-3.26c-1.04-.63-2.4-.99-3.79-1.18-.91,3.65-3.48,6.29-7.5,6.4h.01Z"/>
    <path d="M263.75,144.6c2.83-.82,4.2-3.12,5.26-5.72.44-1.09,2.36-.65,3.2-.04,5.91,4.26,12.36,7.06,19.62,8.04.96.12,1.88.37,2.54,1.28-8.45.55-16.22-2.29-23.45-6.42-2.99,6.95-10.56,8.49-17.37,5.8l10.19-2.94Z"/>
    <path d="M123.76,102.19l-6.77-3.06c-1.1,4.63-4.53,7.62-9.12,7.47-1.9-.05-3.65-.32-5.52-1.15l8.11-2.43c4.09-1.22,3.64-5.39,4.88-6.55.34-.32,1.61-.52,2.07-.3l4.74,2.21c4.92,2.82,9.96,4.6,15.61,5.52l4.4,1.04c.34.1.34,1.31.03,1.33-.25.01-.77,0-1.11-.04l-5.32-.7c-4.09-.54-8.05-1.58-11.97-3.35h-.01Z"/>
    <path d="M169.95,58.29c-2.91,4.48-8.06,5.43-13.01,2.54l7.62-2.62c3.74-1.29,2.06-4.04,5.8-3.54,2.49.33,4.49,1.06,6.44,2.58,4.66,3.67,9.77,6.25,15.5,7.83.26.18.92.84.66.92l-1.03.34c-6.17-.92-11.8-3.17-16.87-6.7-1.61-1.02-3.23-1.65-5.12-1.33h.01Z"/>
    <path d="M49.85,219.22c-2.07.33-4.2-.84-5.98-2.03l7.5-2.46c2.06-.67,3.48-2.73,4.6-4.55,1.28-2.05,3.64-3.09,5.76-1.48l5.96,4.51c3.46,2.61,7.17,4.14,11.55,5.65-3.26,1.13-6.51-.3-9.38-1.62-4.63-2.12-9.22-6.4-10.59-6.1-1,.22-3.39,7.1-9.42,8.06v.03Z"/>
    <path d="M212.44,174.77l5.93-3.05c4.86-2.5,6.15-6.26,10.41-4.57,6.42,2.56,12.64,5.33,18.73,8.6,1.68.91,3.63,1.73,4.2,3.79-8.04-3.6-15.77-6.72-23.86-9.51-3.5-1.22-5.4,6.7-15.41,4.75h0Z"/>
    <path d="M305.67,134.96c-3.27,8.02-10.62,9.78-18.86,8.61l11.36-4.51c4.14-1.63,4.84-6.28,6.54-6.83.49-.15,1.84-.1,2.25.25l4.99,4.25c2.84,2.64,5.54,4.88,8.81,7.12l-.16,1.02c-.04.26-1,.14-1.28-.05l-7.34-5.11-6.29-4.74h-.01Z"/>
    <path d="M290.76,169.15c-2.61.21-5.17-.08-7.86-1.06l8.22-2.4c2.82-.82,5.41-1.73,7.84-3.39,4.36-2.83,8.49.38,12.08,4l6.42,5.51c.08.14.18.78-.04.84-2.32.54-7.49-5.15-12.35-7.91-4.34-2.46-6.53,3.79-14.29,4.42h-.01Z"/>
    <path d="M90.25,195.16c-2.46,4.71-6.51,6.88-11.43,7.16-2.56-.19-4.89-.4-7.58-1.39l10.45-2.32c2.62-.58,4.74-2.14,6.1-4.49.87-1.48,2.54-2.25,4.26-1.29,4.27,2.4,7.57,7.64,13.55,9.19-.58,1.1-1.76,1.2-2.93.84-5.34-1.65-7.82-5.61-12.42-7.68h0Z"/>
    <path d="M80.85,242.32c-.34-.27-1.39-.45-1.72-.3-1.5.67-5.3,9.33-12.39,5.15l5.51-2.4c3.65-1.59,4.48-7.86,9.44-5.32,4.81,2.46,7.75,7.73,12.79,10.67.05.29-.19,1.02-.49,1.22-1.18.82-4.15-1.76-6.07-3.31l-7.06-5.7h0Z"/>
    <path d="M74.33,283.06c2.29-.96,4.75-1.11,6.37-2.71l2.99-2.95c.93-.91,2.4-1.72,3.72-1.35l6.03,1.69,8.05,4.49,9.05,4.9c-2.02.14-3.82-.44-5.48-1.24l-8.48-4.05c-2.76-1.32-5.58-2.39-8.57-2.9-4.26-.73-4.89,8.27-13.68,4.11h-.01Z"/>
    <path d="M54.97,250.63c-1.07,4.92-1.76,11.24-6.73,11.72,5.34-5.34,4-10.51,5.44-12.97.67-1.15,2.57-.65,3.54-.01l15.52,10.17,5.81,2.91c-.52,1.25-4.26.15-5.89-.87l-17.69-10.95h0Z"/>
  </g>
  <circle class="st0" cx="355.25" cy="4.75" r="4.75"/>
  <circle class="st0" cx="4.75" cy="4.75" r="4.75"/>
  <circle class="st0" cx="355.25" cy="355.25" r="4.75"/>
  <circle class="st0" cx="4.75" cy="355.25" r="4.75"/>
</svg>