<?xml version="1.0" encoding="UTF-8"?>
<svg id="Layer_1" xmlns="http://www.w3.org/2000/svg" version="1.1" viewBox="0 0 360 360">
  <!-- Generator: Adobe Illustrator 30.7.0, SVG Export Plug-In . SVG Version: 2.1.4 Build 114)  -->
  <defs>
    <style>
      .st0 {
        fill: #fff;
      }
    </style>
  </defs>
  <path d="M186.96.03c-.03,3.22.08,6.51-.49,9.81-.6,3.48-1.57,6.8-1.55,10.36l.55,6.75c.31,3.87,1.45,7.58,1.57,11.48l.35,11.28c.08,2.7-.02,5.28.56,7.9.76,3.45,1.17,6.82,1.48,10.33l.31,3.47c.47,5.33,2.93,8.87,7.23,11.99,2.47,1.79,5.04,3.08,8.11,3.64l8.54,1.54c4.27.77,8.54.56,12.83.88l5.16.38,8.64.46c5.89-.02,11.5.5,17.3,1.33,2.79.4,5.24.93,7.94,1.74l10.32,3.08c2.11.63,4.01,1.24,5.98,2.22,3.71,1.84,7.29,3.82,10.33,6.7,2.33,2.2,3.92,4.89,5.62,7.58,1.55,2.46,2.72,4.94,3.23,7.85,1.85,10.7,1.93,16.65-3.04,26.62-1.33,2.68-3.07,4.93-5.78,6.27l-3.93,2.32-6.48,3.84c-1.65.98-3.35,2.09-5.29,2.37l-6.51.93c-5.01.72-9.75,1.59-14.67,2.85-3.78.97-7.63,1.93-11.55,1.64-5.46-.41-10.7-1.01-16.18-.31l-11.14.85c-5.78.15-11.22,1.29-16.6,3.3-4.57,1.71-9.13,2.44-14.03,2.39-5.96-.06-11.76,0-17.64-.94-4.34-.7-8.4-1.48-12.85-1.43l-11.49.12c-3.23.03-6.21.27-9.32,1.01-3.86.91-7.59-.27-12.8,1.84-2.36.95-4.83,1.15-7.33,1.61l-6.06,1.12-6.06,1.36c-4.65,1.04-10.23,4.12-13.48,7.65-1.71,1.86-3.59,3.4-5.51,5.04l-3.88,3.32-2,1.89c-1.78,1.68-3.62,3.69-4.32,6.16-1.05,3.7-1.95,10.42-1.16,13.89.58,2.57,1.98,5.41,4.14,7.02,1.98,1.47,4.37,2.19,6.47,3.42l5.29,3.11,2.68,1.37c2.46,1.26,5.31,1.21,8.03,1.61l4.6,1.4c4.6,1.4,9.22,1.97,14.06,2.21l12.14,3.46c3.03,1.39,6.2,1.16,9.48,1.23l8.88.86c1.89.18,3.63,1.29,5.33,2.08l3.74,1.74c1.92.89,3.51,1.96,5.2,3.26l3.8,2.93c2.5,1.93,4.44,4.35,6.35,6.83,1.77,2.3,3.05,4.68,4.22,7.32l3.18,7.16,3.19,5.18c1.22,1.99,2.86,3.7,3.62,5.96,1.89,5.68,2.42,11.54,2.42,17.52,0,2.69-.15,5.23-.91,7.79-.92,3.07-1.46,6.04-1.29,9.27l.34,6.24c.83,5.39.73,10.63.6,16.08l-.15,6.49-.09,12h-10.99c-.52-2.72-.23-5.51-.21-8.4l.03-5.25.03-9.86-.51-6.41-1.23-11.05-.72-8.7-.24-3.82.23-4.35c.2-3.84-.21-7.59-1.17-11.27l-4.9-8.12-3.47-7.08c-1.35-3.42-3.11-6.52-5.75-9.16-1.47-1.47-3.2-3.08-5.14-3.88l-4.8-1.96c-1.86-.76-3.7-1.09-5.68-1.33l-5.7-.71c-3.33-.41-6.44-.82-9.58-1.96l-11.64-4.19c-1.79-.65-3.88-.34-5.73-.78l-8.52-2.04c-1.67-.4-3.2-1.36-4.92-1.55-4.74-.52-8.27-1.04-12.17-3.92l-8.28-6.13-3.41-1.61-4.01-3.17c-1.54-1.22-2.23-3.09-3.2-4.76-1.93-3.31-3.68-6.72-3.94-10.64-.31-4.74.5-9.25,1.34-13.93,1-5.54,3.06-10.78,6.84-14.99l5.78-5.73c2.04-2.02,4.12-3.88,5.79-6.21,2.08-2.9,4.66-4.96,7.75-6.69,2.76-1.55,5.46-2.69,8.58-3.41l9.5-2.17,8.92-1.45c5.39-2.12,10.92-3.08,16.67-3.02l6.99-1.19,11.52.19c5.27.09,10.25.05,15.4,1.22,5.91,1.34,15.29.34,21.46-1.02l4.99-1.97c2.7-1.07,5.22-2.18,8.06-2.79l7.9-1.68c3.43-.73,6.83-.54,10.36-.64l7.2-.19c5.53-.15,10.91.18,16.2,1.74,3.53,1.04,6.89.86,10.5.18l12.27-2.34,8-1.1,6.08-3.81,6.5-4.54c1.49-1.04,2.71-2.4,3.34-4.11,1.42-3.8,1.69-7.74,1.21-11.78-.24-2.01-.32-4.08-1.08-5.93-.95-2.3-2.59-4-4.09-6.03-2.75-2-5.51-4.25-8.95-5.13l-15.88-4.02c-2.43-.62-4.98-.25-7.48-.51-4.61-.48-9.05-.18-13.67-.23l-11.27-.13-5.77-.05-5.43-.12c-3.25-.07-6.29-.69-9.48-1.32l-6.24-1.23c-4.42-1.28-8.02-3.86-11.64-6.55s-6.18-5.68-8.21-9.62c-1.44-2.79-3.18-5.4-3.87-8.57-.94-4.3-1.47-8.53-1.98-12.91-.22-1.9-.92-3.73-.99-5.63-.14-3.32.62-6.49,1.21-9.76-1.12-3.92-1.81-7.72-1.88-11.76-.02-1.21.43-2.15.86-3.26.39-1-.11-2.42-.33-3.5-.7-3.5-1.32-6.93-1.37-10.52-.05-3.89.84-7.53,1.55-11.31.53-2.83.28-5.63.07-8.37h12.19Z"/>
  <circle class="st0" cx="4.69" cy="4.69" r="4.69"/>
  <circle class="st0" cx="355.56" cy="4.69" r="4.69"/>
  <circle class="st0" cx="4.69" cy="355.25" r="4.69"/>
  <circle class="st0" cx="355.25" cy="355.25" r="4.75"/>
</svg>