<?xml version="1.0" encoding="UTF-8"?>
<svg id="Layer_1" xmlns="http://www.w3.org/2000/svg" version="1.1" viewBox="0 0 360 360">
  <!-- Generator: Adobe Illustrator 30.7.0, SVG Export Plug-In . SVG Version: 2.1.4 Build 114)  -->
  <defs>
    <style>
      .st0 {
        fill: #fff;
      }
    </style>
  </defs>
  <path d="M58.99,48.35c2.24,2.31,4.63,4.58,6.54,7.32,2.02,2.9,3.66,5.94,6.18,8.46l5.13,4.42c2.94,2.54,6.36,4.37,9.18,7.07l8.18,7.78c1.95,1.86,3.7,3.77,5.95,5.23,2.96,1.92,5.62,4.03,8.31,6.31l2.66,2.25c4.08,3.46,8.32,4.25,13.57,3.45,3.02-.46,5.75-1.35,8.33-3.11l7.16-4.91c3.58-2.45,6.47-5.6,9.75-8.39l3.94-3.36,6.47-5.74c4.18-4.15,8.53-7.72,13.24-11.21,2.27-1.68,4.38-3.02,6.87-4.34l9.51-5.06c1.94-1.03,3.72-1.94,5.81-2.62,3.93-1.3,7.87-2.4,12.06-2.49,3.2-.07,6.23.72,9.32,1.44,2.83.66,5.41,1.6,7.81,3.32,8.83,6.31,13.07,10.49,16.54,21.08.94,2.84,1.28,5.66.29,8.52l-1.17,4.41-1.91,7.29c-.49,1.86-.92,3.84-2.1,5.4l-3.98,5.24c-3.06,4.03-5.82,7.98-8.44,12.34-2.01,3.35-4.07,6.73-7.07,9.28-4.17,3.54-8.32,6.8-11.73,11.15l-7.33,8.43c-4.01,4.17-7.08,8.8-9.49,14.01-2.05,4.43-4.78,8.15-8.3,11.56-4.28,4.15-8.37,8.26-13.21,11.73-3.58,2.55-7.02,4.85-10.15,8.01l-8.09,8.16c-2.28,2.29-4.23,4.56-5.92,7.27-2.11,3.36-5.59,5.14-7.81,10.3-1.01,2.33-2.63,4.21-4.08,6.3l-3.52,5.06-3.36,5.23c-2.58,4.01-4.38,10.12-4.22,14.92.09,2.52-.17,4.94-.38,7.46l-.43,5.09-.09,2.75c-.09,2.45.02,5.17,1.25,7.42,1.85,3.37,5.93,8.78,8.93,10.7,2.22,1.42,5.21,2.46,7.88,2.09,2.44-.35,4.65-1.51,7.01-2.11l5.95-1.5,2.87-.91c2.64-.83,4.63-2.87,6.84-4.5l4.26-2.24c4.26-2.24,7.94-5.08,11.56-8.31l11.07-6.07c3.13-1.14,5.23-3.53,7.61-5.79l6.92-5.63c1.47-1.2,3.49-1.63,5.25-2.27l3.88-1.39c1.99-.72,3.87-1.07,5.99-1.33l4.76-.59c3.13-.38,6.22-.02,9.32.4,2.88.39,5.46,1.19,8.15,2.24l7.29,2.86,5.91,1.44c2.27.56,4.63.62,6.76,1.7,5.34,2.71,9.83,6.51,14.03,10.77,1.89,1.91,3.57,3.83,4.83,6.18,1.5,2.83,3.21,5.32,5.6,7.5l4.63,4.2c4.38,3.25,7.99,7.05,11.73,11.02l4.45,4.72,55.63,57.18.61,7.07h-4.19c-.39,0-.77-.14-1.07-.4-5.82-5-54.54-51.37-56.48-53.36l-3.67-3.76-6.91-7.04-4.87-4.2-8.64-7-6.63-5.68-2.85-2.55-2.89-3.26c-2.56-2.87-5.48-5.25-8.75-7.2l-9.19-2.33-7.44-2.6c-3.36-1.48-6.79-2.45-10.53-2.48-2.08-.01-4.44.06-6.38.85l-4.79,1.98c-1.86.77-3.4,1.82-4.98,3.04l-4.55,3.5c-2.66,2.05-5.16,3.94-8.19,5.34l-11.23,5.2c-1.73.8-3,2.48-4.63,3.47l-7.5,4.54c-1.47.89-3.23,1.28-4.59,2.35-3.74,2.96-6.62,5.07-11.41,5.76l-10.2,1.46-3.56,1.25-5.08.56c-1.95.21-3.76-.63-5.62-1.14-3.7-1-7.34-2.2-10.28-4.8-3.55-3.15-6.14-6.93-8.83-10.85-3.18-4.64-5.4-9.82-5.67-15.47l.09-8.14c.03-2.87.21-5.66-.24-8.49-.56-3.52-.17-6.8.81-10.21.87-3.04,1.99-5.75,3.71-8.46l5.23-8.22,5.33-7.3c2.35-5.3,5.61-9.86,9.74-13.86l4.14-5.76,8.33-7.96c3.81-3.64,7.33-7.17,11.81-9.95,5.15-3.2,11.12-10.5,14.55-15.81l2.17-4.91c1.17-2.66,2.18-5.22,3.77-7.65l4.44-6.75c1.93-2.93,4.48-5.18,6.92-7.74l4.99-5.19c3.83-3.99,7.89-7.54,12.75-10.15,3.24-1.74,5.51-4.23,7.6-7.25l7.09-10.29,4.92-6.4,1.65-6.98,1.43-7.8c.33-1.79.24-3.61-.51-5.27-1.66-3.7-4.24-6.69-7.42-9.23-1.58-1.26-3.09-2.68-4.94-3.46-2.29-.97-4.65-1.03-7.15-1.42-3.36.51-6.91.85-9.97,2.64l-14.12,8.3c-2.16,1.27-3.72,3.32-5.68,4.89-3.62,2.9-6.57,6.23-9.89,9.44l-8.11,7.83-4.14,4.02-3.95,3.73c-1.52,1.43-3.15,2.73-4.89,3.88l-8.08,5.35c-4.04,2.2-8.42,2.89-12.88,3.52s-8.39.3-12.6-1.08c-2.99-.97-6.06-1.61-8.78-3.38-3.69-2.4-7.04-5.04-10.48-7.79-1.49-1.2-3.28-2.01-4.66-3.31-2.43-2.26-4.12-5.05-6-7.79-3.55-2-6.71-4.22-9.6-7.05-.86-.85-1.2-1.83-1.68-2.92-.43-.99-1.78-1.64-2.69-2.26-2.96-2-5.81-4-8.37-6.52-2.77-2.73-4.69-5.95-6.84-9.14-1.61-2.39,3.13-2.25-55.19-56.79V0s6.46,0,6.46,0l51.53,48.35Z"/>
  <circle class="st0" cx="355.56" cy="4.69" r="4.69"/>
  <circle class="st0" cx="4.69" cy="355.25" r="4.69"/>
</svg>