<?xml version="1.0" encoding="UTF-8"?>
<svg id="Layer_1" xmlns="http://www.w3.org/2000/svg" version="1.1" viewBox="0 0 360 360">
  <!-- Generator: Adobe Illustrator 30.7.0, SVG Export Plug-In . SVG Version: 2.1.4 Build 114)  -->
  <defs>
    <style>
      .st0 {
        fill: #fff;
      }
    </style>
  </defs>
  <path d="M353.24,359.9c-.4-.97-1.12-2.36-2.2-2.81-1.86-.77-3.69-1.42-4.95-3.09l-4.08-5.42-3.9-3.09c-.7-.55-1.3-1.26-1.86-1.97l-3.8-4.85c-2.17-2.78-3.97-5.6-5.74-8.66l-4.57-7.89c-1.61-2.78-3.2-5.42-5.75-7.48-3.57-2.88-8.25-2.56-14.53-8.24-3.48-3.14-7.17-5.61-11.41-7.57l-4.9-2.55c-3.91-2.55-7.73-5.1-11.06-8.36l-9.09-8.91-2.86-2.91-4.96-5.35c-2.27-2.44-4.54-4.6-7.59-6.11-1.92-.96-3.93-1.89-5.62-3.24-2.32-1.85-4.59-3.37-7.19-4.83-4.16-2.33-7.89-5.04-11.38-8.27l-6.25-5.78-7.56-8.24-2.44-2.37c-3.37-2.69-6.17-5.7-8.37-9.41l-6.87-11.58-2.35-5.1c-1.98-3.36-4.66-5.99-7.41-8.66l-3.32-3.22c-.5-.48-1.01-1.32-1.37-1.96l-2.8-4.93c-.49-.87-1.25-2.25-1.08-3.21l.85-4.92c.08-.47-.08-.72-.25-1.17-1.63-4.28,1.76-8.17-.15-13.03l-2.57-6.54c-1.69-4.28-4.86-5.31-6.02-9.13-2.52-3.2-1.26-7.95-2.63-10.85l-2.44-5.19-2.35-6.03-2.61-8.71c-1.25-4.16-2-8.18-1.58-12.55.47-4.79.75-9.43.79-14.23.03-4.2.38-8.18,1.45-12.24.96-3.68,2.17-7.06,4.04-10.38l3.89-6.94c.7-1.25,1.92-2.24,2.87-3.32l4.42-5.51c.25-2.57-.29-5.01-1.53-7.28-.57-1.27-.7-2.54-.72-3.92-.08-4.75.65-9.13,2.04-13.64l.65-3.19c.35-1.73-.21-3.53-.12-5.28l.27-5.08.37-3.05c.3-2.43.64-4.57.34-7.02-.08-.6.16-1.85.3-2.43l.39-2.32h7.55l2.08,3.51.39,2.4c.14.87.38,1.23.38,2.03,0,1.27.47,2.76-.04,3.96l-1.58,3.68c-.92,2.16.27,6.2-1.23,11.74-1.09,3.98-.94,7.95-.7,12.04.11,1.84.24,3.47,1.22,5.05,1.25,2.03,1.59,4.31,1.99,6.66l.86,5.11c.66,3.9-5.57,10.16-8.16,13.65l-4.61,7.36c-2.43,3.88-3.29,7.99-3.42,12.52-.15,5.03-.55,9.9-1.1,14.93-.39,3.57.05,6.93,1.28,10.29l3.47,9.51c.96,2.63,2.17,5.26,3.61,7.63,1.95,3.23,3.32,6.31,3.27,10.22-.03,2.11.85,4.03,2.25,5.57,1.79,1.98,2.91,4.1,3.82,6.54,1.16,3.11,1.65,6.16,1.23,9.54l-.6,4.87c-.74,2.35-1.52,4.34-1.17,6.92.16,1.17-1.76,2.89-1.18,3.72l2.27,3.21c.8,1.13.44,2.62,2.16,4.03l4.1,3.37c3.01,2.47,5.44,5.2,7.87,8.23,1.89,2.35,3.11,4.67,4.49,7.35,2.45,4.77,5.65,9.07,8.83,13.37,1.13,1.53,2.81,2.55,4.18,3.75l4.24,3.72,8.54,8.46,6.49,5.55c2.94,2.51,6.13,4.39,9.42,6.4l7.28,4.45,5.58,3.08c2.3,1.27,4.72,2.36,6.57,4.24l5.36,5.44,3.87,4.31,4.5,4.61,3.41,3.8,7.19,7.44c2.58,2.36,5.06,4.54,8.13,6.27,3.81,2.15,7.06,4.74,10.16,7.84,1.04,1.03,2.22,2.27,3.4,3.03,3.62.77,6.6,2.22,9.78,3.92,3.47,1.87,6.35,4.19,8.68,7.45l2.99,4.19c2.03,2.85,3.69,5.75,5.24,8.9,1.39,2.82,2.9,5.43,4.73,7.98l2.93,4.07,2.59,2.87,1.69,2.22c.5.66.71,2.36.71,3.29.01,1.31-.57,3.07.53,4.09l3.59,2.14c1.07.64,1.75,1.79,2.53,2.75l.81.7v4.02s-6.94,0-6.94,0l.05.02Z"/>
  <path class="st0" d="M4.82,9.26c-2.59,0-4.69-2.1-4.69-4.69,0-2.59,2.1-4.69,4.69-4.69s4.69,2.1,4.69,4.69c0,2.59-2.1,4.69-4.69,4.69Z"/>
  <circle class="st0" cx="4.82" cy="355.43" r="4.69"/>
  <circle class="st0" cx="355.37" cy="4.57" r="4.69"/>
</svg>