<?xml version="1.0" encoding="UTF-8"?>
<svg id="Layer_1" xmlns="http://www.w3.org/2000/svg" version="1.1" viewBox="0 0 360 360">
  <!-- Generator: Adobe Illustrator 30.7.0, SVG Export Plug-In . SVG Version: 2.1.4 Build 114)  -->
  <defs>
    <style>
      .st0 {
        fill: #fff;
      }
    </style>
  </defs>
  <g>
    <path d="M352.94.13h7.18s0,5.05,0,5.05c-.84.46-1.97,1.2-2.32,2.2-.77,2.22-1.39,4.47-2.85,6.3-2.03,2.54-3.69,5.07-5.31,7.91-2.08,3.66-4.8,6.76-7.63,9.86l-3.88,4.27c-1.9,2.09-3.86,3.66-6.3,5.03-3.44,1.93-6.86,3.42-10.83,4.05-4.26.67-8.57.97-12.75-.23l-8.56-2.46c-1.57-.45-3.61-.69-5.11.02-3.24,1.55-7.5,10.14-8.64,14.37l-4.02,14.92c-1.86,8.2-2.97,16.32-3.89,24.67l-1.47,9.06c-.32,1.96-1.31,3.63-2.68,5.03-1.06,1.89-2.66,3.21-4.71,3.9-3.38,2.57-7.3,3.46-11.51,3.38-4.27-.08-8.36-.49-12.2-2.45-3.72-1.9-7.05-4.29-10.06-7.18s-5.57-5.74-8.06-8.98c-5.34-6.95-5.64-13.07-8.47-16.27-4.4-4.97-12.76-4.96-14.89-1.58-1.78,2.82-1.77,6.2-1.62,9.4.18,3.93.68,7.63,1.91,11.36l3.38,10.28c1.35,4.12.45,7.87-.61,11.89-1.07,4.03-2.48,7.79-4.32,11.53l-2.82,4.86-1.45,3.71c.56,1.04.18,1.96-.72,2.53l-1.89,4.67c.2.3.85.61,1.36.74l8.66,2.18,6.37,1.46,7.68-3.88c2.32-1.17,4.31-2.35,6.19-4.15,2.26-2.16,9.1-5.45,12.48-6.46,3.38-1.01,6.96-1.06,10.45-.35l15.54,3.16c3.51.71,6.9,1.53,10.1,3.11l5.78,2.86,11.37,6.82,3.34,1.78c.75.4,1.71,1.49,2.58,1.66,4.38.86,8.04,2.7,12.04,4.51l10.5,4.75c.19-.91.6-1.47,1.33-1.6l5.32-.96,6.76-.89c0-1.35.54-2.28,1.93-2.49,4.78-.71,9.56-.42,14.42-.77l7.93-.57,2.16.29v30.07c-1.18.39-2.4.73-3.78.94l-9.4,1.43c-1.44.22-2.39-.52-3.55-1.19-1.33-.76-3.29-.59-4.85-.67-2.45-.12-4.57-.75-6.96-1.14l-6.02-.96-8.79.61-5.37.62c-2.78-.09-5.35-.71-8.02-1.35-5.52-1.32-10.34-3.78-14.75-7.36-5.4-4.38-10.98-8.22-17.22-11.3l-8.04-3.98c-1.87-.92-3.86-1.51-5.96-1.44l-4.22.13-14.4,2.53-5.24,5.14c-1.27,1.24-2.83,1.99-4.38,2.82l-4.98,2.66c-3.4,1.82-7.17,1.35-10.95,1.35-6.84-.01-13.15-1.53-19.16-4.85l-4.29-2.37-3.39-5.05c-1.99-2.97-2.45-6.86-2.3-10.37.19-.74,1.23-1.5.59-2.43-5.81-3.71-6.28-.56-9.68.54-2.42.78-4.91,1.24-7.16,2.47-1.7.93-3.63,1.96-5.07,3.26-3.65,3.3-7.54,5.77-11.78,8.17s-8.26,3.81-13.22,3.88l-5.52,1.61-3.95,1.71c.29,1.39.4,2.56.4,3.91l.06,11.02c.01,2.73.4,5.11,1.52,7.58.85,1.87,1.98,3.1,3.71,4.27l5.85,3.96c1.25.84,2.15,2.32,2.44,3.76.46,2.3-.22,4.4-.49,6.64l-.13,6.51c.78.89,1.88,1.68,2.86,2.42l7.37,5.66,7.41-1.09c2.13-.31,4.26-.23,6.42-.29,3.76-.11,7.28.3,10.9,1.32l7.33,2.05,7.43,2.67,5.89,2.9c1.3.64,1.97,2.09,1.89,3.46l4.17,1.26,2.9,1.21,9.34,5.31c2.9,1.65,6.1,2.79,8.37,5.32l1.93,2.14,7.34,10.39c.78,1.11,1.13,2.47,1.58,3.75l2.97,1.82c3.84,2.36,4.69,8.37,5.31,12.96l.91,6.74c.5,3.7,1.55,10.87-.04,12.93l-6.07,7.86c-2.45,3.17-13.24,8.93-17.58,10.5-2.68.97-5.51,1.42-7.99,2.83s-4.55,3.54-6.73,5.52l-2.78,6.57-1.36,5.83-1.45,7-1.45,5.52h-38.92c-.08-1.57-.28-3.32-.03-4.97.2-1.38.29-2.58-.04-3.93l1.26-5.08c.59-3.4,1.89-6.38,3.27-9.51l1.83-4.14,1.76-4.2c1.19-2.83,2.84-4.92,5.16-6.97,1.85-1.63,2.95-4.16,4.19-6.29l2.22-3.82c2.37-4.07,9.32-10.41,14.5-11.38l5.07-.95c5.36-1.01,11.31-2.39,14.54-6.82.39-.53.61-2.09.33-2.71-1.43-3.15-4.92-5.57-7.13-8.94-1.38-2.1-1.8-4.55-2.47-6.93-.46-1.62-.81-3.04-.93-4.78-1.86-1.07-3.87-1.89-5.96-2.44-3.17-.85-6.11-1.94-9-3.49l-7.8-4.2c-1.99-1.07-4.2-1.9-6.51-1.89l-14.53.08c-5.19.03-10.15-1.3-14.79-3.66-3.18-1.62-6.13-3.34-9.08-5.31-4.54-3.03-6.93-8.04-8.5-8.71l-4.61-1.95c-1.88-.8-3.46-2.14-4.45-3.94l-5.72-10.35c-1.12-2.03-2.53-3.76-3.53-5.86-1.19-2.52-2.08-4.97-2.66-7.68l-.89-4.16c-.44-2.05-.32-3.89-.07-5.96.93-7.89-.79-14.65,2.72-21.53l3.57-7.01c2.73-5.36,11.25-9.81,17.16-11.35,3.57-.93,7.42.35,10.63-.05.49-1.6.92-2.73,1.62-4.06,1.03-1.97,1.87-4.05,3.38-5.74.7-.78,2.26-1.2,3.21-1.49,1.29-.41,1.72-1.26,2.65-2l5.48-4.35,5.71-4.14c1.32-.96,2.44-2.09,3.98-2.74l7.19-3.06c2.69-1.15,5.89-.7,8.55.13l3.48,1.09c1.14.36,2.1.92,3.2,1.4l1.44.63c1.64-2.48,2.96-4.8,4.08-7.55l1.81-6.31c.66-2.3,1.89-4.92,1.38-7.32l-2.24-10.62c-1.03-4.9-1.23-9.63-.97-14.62.15-2.91.78-5.53,1.92-8.08,1.29-2.87,3.14-4.56,5.88-6,3.31-1.74,6.5-2.92,10.5-2.55,5.34.49,10.69,2.34,15.05,5.59s5.48,9.61,10.79,14.91l6.6,6.59c2.36,2.36,4.99,4.13,7.82,5.94l5.76.43c2.66.2,5.13-.17,5.65-2.55l2.81-13.04,4.12-19.84,3.89-15.54c.77-3.06,2.07-5.75,3.46-8.56,2.04-4.14,4.49-7.94,7.87-11.05,2.96-2.73,6.51-4.07,10.52-4.2,2.58-.09,5.1.22,7.57,1.06l8.79,2.97c4.86,1.22,10.51.42,14.64-2.47,2.38-1.67,4.01-3.97,6.12-5.9l2.39-2.18c2.22-2.03,4.05-4.28,5.6-6.87,1.67-2.81,3.62-5.2,5.9-7.55,1.85-1.9,2.38-6.75,6.2-9.4Z"/>
    <path d="M91.09,131.35l-.87-.5c-.03.07.04-.11.08-.19.05-.12.43-.36.47-.24l.33.93Z"/>
    <path d="M37.62,303.64c-.08-.03.02-.36.07-.42.08-.09.29-.24.34-.13l.23.53c.05.11-.53.06-.64.02Z"/>
    <path d="M328.66,238.65l-18.21-1.17c-11.98-.77-24.64-6.91-34.66-13.34-4.85-3.11-9.82-5.47-15.28-7.29l-9.52-2.74c-6-1.29-12-.95-17.81,1.03-1.78.61-3.81.91-4.51-.1-.29-.41-.49-1-.34-1.71.43.09,1.05.35,1.51.6l5.23-2.42c5.35-2.14,11.04-2.65,16.83-1.84,6.98.98,13.66,2.83,20.2,5.43,4.18,1.66,7.9,3.75,11.78,5.99,6.56,3.8,13.24,6.82,20.56,8.92l24.55,7.83c.07.12.19.36.13.42l-.45.38Z"/>
    <path d="M226.99,245.2c.55.55.88.8,1.71,1.33-.12.27-.83.88-1.26.93s-1.21-.22-1.61-.5l-9.19-6.41-8.28-5.86c-3.09-2.18-6.43-3.64-10.15-4.49-6.58-1.5-13.11-2.38-19.84-2.93-1.93-.16-3.74-.49-5.54-1.22l-6.63-2.69c-.19-.08-.52-.46-.55-.65s.35-.6.55-.67l5.62-2.02c5.46-1.97,16.57.18,22.82,1.77,4.87,1.24,9.45,2.8,13.72,5.49,2.82,1.78,5.15,4.07,7.43,6.48l4.43,4.68,6.78,6.77Z"/>
    <path d="M291.39,195.33c-.01.33-.74.67-1.01.57l-10.72-4.18-5.99-3.13-8.44-4.76c-4.63-2.29-9.57-3.5-14.76-3.44-4.56.05-4.72.97-7.35,3.65s-6.69,5-10.42,4.4l-8.58-1.38c-1.01-.16-1.68-1.34-1.27-2.1h2.17s6.01-.1,6.01-.1c4.65-.08,6.06-1.39,8.73-5.36,1.85-2.73,4.48-4.48,7.76-5,8.12-1.28,16.35,1.06,23.59,4.86,3.56,1.87,6.87,3.85,10.15,6.19,2.65,1.9,4.9,4.17,7.12,6.55l3.01,3.22Z"/>
    <path d="M251.81,251.99c-5.18-3.08-9.57-6.8-14.13-10.37l-5.25-4.64-9.69-9.46c-4.08-3.98-8.53-6.23-14.19-6.94l-10.67-1.34c-4.69-.59-9.15-.81-13.85-.84-3.4-.02-6.68-.44-9.94-1.27s-7.93-3.08-7.34-6.16l1.79-.09.22,1.02c4.22,3.46,12.37,2.78,18.09,2.12,3.87-.45,7.55-.48,11.38.08l11.53,1.69c4.59.67,8.84,2.45,12.6,5.17,2.94,2.13,5.3,4.7,7.81,7.3l6.36,6.59,3.53,3.7c3.74,4.54,7.93,8.4,11.76,13.47Z"/>
    <path d="M253.04,197.58c.51.15-.52,1.28-4.76.99l-12.94-.89c-2.01-.14-4.13-.05-5.95.73-1.06.45-1.85,1.6-2.79,2.24-3.21,2.19-6.63,3.68-10.22,5.15-3.27,1.34-6.4,2.6-9.86,3.33-4.63.97-9.23.93-13.75-.34-2.15-.6-3.86-1.71-5.27-3.41-1.33-1.59-2.51-3.13-3.54-5.29,2.83.33,5.5.15,8.08.8,5.97,1.51,11.71,1.49,17.64-.39l9.44-2.99c1.53-.48,3-1.08,4.38-1.88,2.47-1.44,5.07-2.06,8.05-1.79,6.06.55,11.94,1.79,17.91,3.07l3.05.52.52.15Z"/>
    <path d="M167.77,182.73c-1.96,2.64-4.23,4.38-7.04,5.83-3.13,1.61-6.4,2.12-9.75.78l-4.59-1.84v4.35c0,2.42,1,4.68,2.54,6.5l5.06,5.98,5.44,7.75c1.59,2.26,2.11,5.33.63,5.28-.36-.01-.76-.43-.99-.84-1.25-2.25-2.73-4.21-4.5-6.06l-7.06-7.35c-1.91-1.99-4.11-3.67-5.2-6.3-1.32-3.16-1.8-6.54-1.87-9.98-.02-1.05.36-2.01.75-2.9.69-1.56,1.87-2.46,3.69-2.37.97.05,2.19.07,3.12.41l4.92,1.82c1.34.5,2.67.58,4.05,0,1.77-.75,3.46-1.9,4.7-3.44,1.74-2.16,3.56-4.05,5.64-5.88l2.19-1.93c.3-.26,1.17-.6,1.43-.23l-.26,3.58c-.19,2.66-1.33,4.72-2.9,6.83Z"/>
    <path d="M255.83,327.3c-2.13,3.57-5.16,6.06-8.66,8.15-5.23,3.13-10.73,5.08-16.77,6.03l-9,1.77c-2.41.47-4.44,1.75-6.25,3.37-1.93,1.73-2.91,4.02-3.51,6.55-.13.54-.45,1.03-1.02,1.14-.93-8.09,5.37-13.68,12.75-15.8l6.9-1.98c3.23-.93,6.28-1.99,9.32-3.36,3.67-1.65,6.59-3.93,9.67-6.45l10.06-8.23c-.48,3.27-1.92,6.16-3.49,8.8Z"/>
    <path d="M327.3,219.81c-.49.53-1.19,1.02-1.99,1.08-5.36.38-10.46-.42-15.57-2.18l-22.97-7.94c-4.93-1.7-11.73-4.58-14.87-8.44-1.99-2.45-3.98-4.86-5.27-7.97l11.49,6.8c3.94,2.34,7.66,4.35,11.93,6.1l20.39,8.36c4.6,1.89,9.3,3.37,14.14,3.37.96,0,1.77-.05,2.72.81Z"/>
    <path d="M270,326.44l-.03,3.62c-.02,3.37-1.15,6.14-3.16,8.73-2.24,2.88-4.69,5.33-7.82,7.3-3.61,2.26-7.31,4.11-11.26,5.74l-8.72,4.26c-.53.26-1.65.73-2.08.28-.31-.46-.63-1.68-.51-2.2.48-2.12,5-4.76,7.51-6.11l8.09-4.37c4.52-2.44,7.77-6.05,10.75-10.15l6.03-6.93c.2-.22,1.19-.46,1.19-.18Z"/>
    <path d="M259.17,301.05c-.06,4.42-.4,11.44-3.39,13.96-.23.19-1.06.32-1.27.13-.25-.22-.04-.84.14-1.29.81-2.09,1.18-4.33,1.23-6.67.19-8.52-.76-16.93-2.87-25.2-1.09-4.27-2.92-8.02-5.86-11.22-4.3-4.68-9.24-8.24-14.04-12.71,4.17,1.27,7.62,3.14,11.16,5.04,6.34,3.41,10.64,9.18,12.43,16.13s2.58,14.39,2.47,21.82Z"/>
    <path d="M217.13,184.1c.51-.25,1-.34,1.49-.11-.95,2.4-2.32,4.42-4.04,6.34-1.23,1.38-2.89,2.23-4.5,3.16-4.35,2.52-9.29,3.25-14.16,1.78-9.64-2.92-16.86-10.45-18.32-20.53-.31-2.38-.04-4.5.72-6.77l.65.02c.19,0,.24.6.25.85.1,7.41,3.99,14.04,10.04,18.22,3.18,2.2,6.65,3.7,10.54,3.86,3.18.13,5.78-1.22,8.51-2.55l8.82-4.27Z"/>
    <path d="M279.82,276.93c.05,1.3-.41,2.13-1.68,2.23l-.39-2.56c-.58-3.75-2-7.22-3.79-10.56l-6.02-9.33-11.09-13.86c-3.5-4.37-6.68-8.81-9.7-13.94,3.91,2.08,6.84,4.95,10.04,7.61l4.45,4.42c4.42,5.29,8.26,10.83,11.76,16.76,3.47,5.89,6.16,12.2,6.43,19.23Z"/>
    <path d="M350.7,201.53c.08.04.45.25.39.32l-.42.49c-4.55,5.3-10.85,8.47-17.9,8.76-7.98.32-16.33-2.45-23.72-5.34l-8.12-3.18c-.53-.21-1.04-1.3-.6-1.62,1.61-.35,3.35-.09,4.94.41l8.98,2.8c4.87,1.52,9.79,2.49,14.9,2.75,3.92.2,7.37-.97,11.01-2.1l10.54-3.28Z"/>
    <path d="M277.74,307.6c-1.02,3.99-2.14,7.69-3.84,11.43-.45-2.27-.24-4.17-.15-6.23l.51-11.27c.18-3.97-.11-7.66-1.73-11.3-2.13-4.8-4.55-9.29-7.37-13.73l-5.6-7.6-4.62-5.98.47-.52,2.44,2.94c4.36,4.35,8.22,8.89,11.62,14.04l5.83,9.52c3,4.9,3.86,13.07,2.43,18.7Z"/>
    <path d="M285.53,300.5c.18-.1.7.11.73.29.61,3.53,1.62,6.75,1.69,10.37.19,10.07-3.6,19.56-10.03,27.16-1.53,1.81-3.88,4.27-4.56,2.82-.16-.34.06-.92.58-1.03,5.48-7.18,8.74-14,9.74-23.13l1.85-16.48Z"/>
    <path d="M173.13,190.97l3.73-7.12c1.71,6.89-.91,13.04-5.91,17.55-1.41,1.27-3.18,2.13-4.91,2.76-2.35.86-4.64.58-6.81-.47-2.73-1.33-4.36-4.2-3.53-7.22.92.51.7,1.2.92,1.88,1.01,3.25,4.61,4.74,7.77,3.69,2.58-.86,4.43-2.63,5.96-4.85,1.2-1.91,1.67-4.11,2.77-6.21Z"/>
    <path d="M347.44,224.43c3.16-1.68,6.37-2.97,9.78-3.96-4.52,4.85-10.05,7.76-16.02,9.6-1.59.35-3.01.55-4.63.54-1.86,0-4.27-1.45-3.93-3.06.03-.15.6.14.71.27,2.57,3.17,10.05-1.25,14.09-3.4Z"/>
    <path d="M321.52,199.75c-.09,0,0-.45.09-.45h.47c.09.02.23.4.14.41l-.7.04Z"/>
  </g>
  <circle class="st0" cx="4.82" cy="355.43" r="4.69"/>
  <circle class="st0" cx="4.82" cy="4.57" r="4.69"/>
  <circle class="st0" cx="355.37" cy="355.43" r="4.69"/>
</svg>