<?xml version="1.0" encoding="UTF-8"?>
<svg id="Layer_1" xmlns="http://www.w3.org/2000/svg" version="1.1" viewBox="0 0 360 360">
  <!-- Generator: Adobe Illustrator 30.7.0, SVG Export Plug-In . SVG Version: 2.1.4 Build 114)  -->
  <defs>
    <style>
      .st0 {
        fill: #fff;
      }
    </style>
  </defs>
  <g>
    <path d="M162.55,0h30.07c.39,1.18.74,2.4.94,3.78l1.43,9.4c.22,1.44-.52,2.39-1.19,3.55-.76,1.33-.59,3.29-.67,4.85-.12,2.45-.75,4.57-1.14,6.96l-.96,6.02.61,8.79.62,5.37c-.09,2.78-.71,5.35-1.35,8.02-1.32,5.52-3.78,10.33-7.36,14.75-4.38,5.4-8.21,10.98-11.3,17.22l-3.98,8.04c-.97,1.95-1.52,4.01-1.45,6.21l.13,3.98,2.53,14.4,5.14,5.24c1.24,1.27,1.99,2.83,2.82,4.38l2.66,4.98c1.82,3.4,1.35,7.17,1.35,10.95,0,6.85-1.54,13.15-4.85,19.16l-2.37,4.3-5.19,3.46c-2.95,1.97-6.77,2.39-10.25,2.21-.74-.11-1.48-1.28-2.42-.57-.78,1.29-2.13,3.5-1.7,5.19l2.23,4.47,2.41,7.21,1.28,2.03c1.23,1.95,2.46,3.64,4,5.37l-.63,1.81,3.24,3.08c.92.06,2.31.15,3.26-.1l4.13-1.08,7.23-5.52,5.27-5.31c3.04-3.06,5.44-6.42,7.51-10.22,2.89-5.29,3.41-6.28,3.5-12.8.06-4.38.45-8.52,1.04-12.88l1.51-11.02.4-7.2c.12-2.13.21-4.19.78-6.24.89-3.21,2.18-6.12,3.56-9.15l4.43-9.72,2.04-4.41c1.31-2.83,3.07-5.09,5.21-7.3,3.27-3.37,7.04-5.82,11.6-7.12,1.66-.47,3.3-.96,5.06-.93,1.55.02,3.06-.03,4.53-.5,5.75-1.85,12.71-4.59,15.45-9.98.83-1.64,1.27-3.46,1.69-5.27l3.03-13.06c1.77-7.64.91-15.41,3.62-23.55,2.16-6.47,5.85-12.46,11.05-16.96,5.65-4.89,12.27-8.1,19.13-10.85l10.82-4.34c4.73-1.9,9.53-2.49,14.63-2.02l7.02.65,20.15.44,3.35-.43c1.36-.17,2.67-.52,3.75-1.32,2.47-1.83,4.52-4.02,6.31-6.38h1.94s0,6.44,0,6.44l-.51.23c-1.8,2.68-3.86,5.06-6.35,7.11l-3.56,1.78-1.52,2.08c-3.44,1.29-7.01,1.87-10.71,1.94l-5.66.09c-5.19.09-10.06-.07-15.21-.84-2.39-.36-5.35-.99-7.67-.16l-16.74,6.06c-4.69,1.7-8.9,4.27-12.87,7.27-3.74,2.82-6.63,6.63-8.49,10.88-.94,2.14-1.15,4.57-1.05,6.87l.49,11.43c.13,3.12-.46,6.09-1.12,9.12l-2.27,10.48c-.87,4.03-2.28,7.75-4.19,11.38-2.07,3.92-5.11,6.94-9.02,9-4.31,2.27-8.72,3.83-13.44,5.04l-7.24,1.23c-3.91.66-11.19,6.28-13.16,9.79l-7.94,14.12c-1.53,2.73-2.1,5.42-2.38,8.48l-.62,6.82-1.97,15.95-.04,10.3c-.01,3.24-.44,6.26-1.5,9.32l-3.92,8.78c-1.99,4.45-4.8,8.24-8.12,11.81l-4.28,4.61-6.64,5.38c0,1.91-.8,3.32-1.79,4.9l-1.21,2.83-1.66,4.36-1.01,4.34,1.16,2.59c1.42-.29,2.56-.4,3.92-.4l11.02-.06c2.73-.01,5.11-.4,7.58-1.52,1.87-.85,3.1-1.98,4.27-3.71l3.96-5.85c.84-1.25,2.32-2.15,3.76-2.44,2.3-.46,4.4.22,6.64.49l6.51.13c.89-.78,1.68-1.88,2.42-2.86l5.66-7.37-1.09-7.41c-.31-2.13-.23-4.26-.29-6.42-.11-3.76.3-7.28,1.32-10.9l2.05-7.33,2.67-7.43,2.9-5.89c.64-1.3,2.09-1.97,3.46-1.89l1.26-4.17,1.21-2.9,5.31-9.34c1.65-2.9,2.79-6.1,5.32-8.37l2.14-1.93,10.39-7.34c1.11-.78,2.47-1.13,3.75-1.58l1.82-2.97c2.36-3.84,8.37-4.69,12.96-5.31l6.74-.91c3.7-.5,10.87-1.55,12.93.04l7.86,6.07c3.17,2.45,8.93,13.24,10.5,17.58.97,2.68,1.42,5.51,2.83,7.99,1.45,2.55,3.54,4.55,5.52,6.73l6.57,2.78,5.83,1.36,7,1.45,5.52,1.45v38.92c-1.57.08-3.31.06-4.97.02l-3.94-.09c-1.62-.04-3.38-.92-5.06-1.15-3.42-.48-6.4-1.86-9.52-3.24l-4.14-1.83-4.2-1.76c-2.83-1.19-4.92-2.84-6.97-5.16-1.63-1.85-4.16-2.95-6.29-4.19l-3.82-2.22c-4.07-2.37-10.41-9.32-11.38-14.5l-.95-5.07c-1.01-5.38-2.39-11.29-6.82-14.54-.53-.39-2.09-.61-2.72-.32-1.27.57-2.59,1.64-3.64,2.59-4.25,3.85-5.59,5.68-12.22,7.02l-4.75.96c-1.13,1.77-1.91,3.87-2.47,5.92-.86,3.18-1.94,6.11-3.5,9l-4.2,7.8c-1.07,1.99-1.9,4.2-1.89,6.51l.08,14.53c.03,5.19-1.3,10.15-3.66,14.79-1.62,3.18-3.34,6.13-5.31,9.08-3.03,4.54-8.04,6.93-8.71,8.5l-1.95,4.61c-.8,1.88-2.14,3.46-3.94,4.45l-10.35,5.72c-2.03,1.12-3.76,2.53-5.86,3.53-2.52,1.19-4.97,2.08-7.68,2.66l-4.16.89c-2.04.44-3.89.33-5.96.07-6.88-.85-14.92.51-20.23-2.13l-8.01-3.98c-4.32-2.15-7.16-6.81-9.31-11.08l.67-5.34c.15-1.23.28-2.42.92-3.47l3.56-5.8c1.08-1.76,2.71-3.08,3.79-4.82l2.47-3.97-.31-.26-3.63.34-7.19.4c-2.19.12-4.18-.26-6.22-.93l-4.54-1.48-3.61-.96-1.73-1.54-4.33-5.55-4.03-5.57c-.88-1.22-1.96-2.26-2.58-3.65l-2.32-5.18c-1.03-2.29-1.88-4.76-1.21-7.3.39-1.49,1.13-2.82,1.77-4.18,1.01-2.14,2.05-4.06,3.37-6.02l2.92-4.33c.77-1.15,2.81-1.18,3.97-1.71l6.34-2.89,1.61.7c.91-1.11.98-2.61,1.32-3.98l1.28-5.16,1.68-7.3-3.93-7.84c-1.14-2.27-2.32-4.19-4.06-6.03-2.19-2.31-5.45-9.09-6.46-12.48s-1.06-6.96-.35-10.45l3.16-15.54c.71-3.51,1.53-6.89,3.11-10.1l2.86-5.78,6.82-11.37,1.78-3.34c.4-.75,1.49-1.71,1.66-2.58.86-4.38,2.7-8.04,4.51-12.04l4.74-10.49c-.76-.18-1.44-.56-1.55-1.15l-1.01-5.51-.89-6.76c-1.24-.02-2.23-.44-2.44-1.74-.79-4.83-.46-9.69-.81-14.61l-.57-7.93.3-2.16Z"/>
    <path d="M284.17,247.53l6.38-12.88c-.1,12.43-6.29,24.57-14.47,33.47-5.28,5.75-11.43,10.09-18.65,13.06-5.93,2.44-11.99,3.94-18.4,4.61l-11.09,1.16c-5.73.6-10.9,2.75-15.6,5.98-1.4.96-3.43,1.77-4.17,1.03-.22-.21-.35-.84-.34-1.17.39.3,1.22.65,1.55.42l2.31-1.65c4.57-4.08,9.85-6.79,15.88-8.11l9.97-1.79c5.19-.93,10.1-2.06,15.02-3.93,8.79-3.33,16.34-8.62,22.43-15.73,3.79-4.42,6.56-9.18,9.19-14.49Z"/>
    <path d="M136.12,85.19c1.01.56.79,1.76.29,2.75-2.09,4.11-4.07,8.12-5.45,12.55-2.67,8.61-4.78,17.33,1.26,24.55,4.6,5.49,9.25,13.79,10,20.89.21,2.01-.15,3.98-1.13,5.75-.77,1.38-1.71,2.97-2.97,3.93-2.42,1.84-5.02,3.31-8.06,4.24l5.04-10.32c.86-.81,1.08-1.86.84-3.02-1.01-4.83-3.17-9.16-5.91-13.26l-3.46-5.18c-5.35-9.09-3.08-18.21.92-27.45,2.05-4.72,4.43-9.05,7.41-13.23l1.22-2.2Z"/>
    <path d="M130.17,266.11c1.43,2.68,1.97,8.65,5.24,14.66,2.21,4.06,5.1,7.77,8.78,10.59s7.7,4.26,11.95,5.58c6.53,2.03,13.18,2.2,19.82.68l13.85-2,.53.4c.11.08-.25.42-.36.49-3.09,2.12-6.06,4.05-9.44,5.72-11.47,4.3-21.78,3.45-32.64-2.07-3.48-1.77-6.46-3.91-8.97-6.91-4.26-5.08-7.08-10.99-8.38-17.51l-1.14-8.23c-.05-.33-.35-.76-.68-1.08l.39-.48c.15-.18.93-.06,1.04.16Z"/>
    <path d="M165.66,283.27c11.48,1.11,22.75-.34,33.61-3.87,8.62-2.81,16.93-5.89,25.34-9.15l5.66-2.35c.53-.22,1.27.07,1.44.76l-7.34,3.98c-7.48,3.54-14.94,6.7-22.71,9.66-11.09,4.23-22.74,6.44-34.6,6.14-6.83-.17-13.14-2.15-18.43-6.31-2.62-2.06-6.51-7.44-7.54-11.16l9.95,6.83c4.38,3.01,9.06,4.93,14.6,5.46Z"/>
    <path d="M267.2,200.34c1.14-7.67,3.11-14.21,7.92-20.64-.23,4.45-.93,8.39-1.63,12.5l-2.7,15.99c-1.49,10.73-5.55,20.73-12.19,29.29-2.55,3.29-5.39,6.05-8.42,8.88-4.18,3.9-8.75,6.95-13.93,9.34-2.05.94-3.93,2.04-6.12,2.47-1.15.22-2.6-.28-2.53-1.45.86.2,1.84.37,2.47,0,3.58-2.09,7.03-4.02,10.42-6.4,5.89-4.14,13.55-12.28,17.33-18.43,4.23-6.88,6.84-14.43,8.03-22.42l1.35-9.13Z"/>
    <path d="M124.69,175.46c-3.4,7.03-4.6,14.63-3.78,22.31.37,3.43,1.7,6.21,4.13,8.64l6.11,6.11c3.6,3.6,9.72,3.66,13.66,6.25l5.78,4.56-.03.72-6.32.4c-1.72.11-3.35-.21-5-.57-5.19-1.15-9.78-3.62-13.36-7.53-4.85-5.3-8.94-10.19-9.24-17.65-.42-10.58,2.82-20.81,9.1-29.25-.08-.34-.22-.77-.14-.97s.72-.42.97-.41c.77.03,1.1,1.22.74,1.96l-2.63,5.44Z"/>
    <path d="M133.83,40.53c-.02,6.4-.6,12.45-1.48,18.6-.76,5.28-2.46,10.16-5.32,14.59-3.87,6-9.3,8.33-11.38,17.48-1.42,6.26-2.19,12.49-2.43,18.93-.21,5.65.74,10.85,2.79,16.08.1.25.03.89-.12,1.09s-.8-.09-.98-.3c-3.08-5.45-4.36-11.3-4.51-17.6-.07-6.53.22-12.88,1.32-19.3,1.02-5.98,3.65-11.18,7.65-15.62,2.4-2.66,4.58-5.34,5.98-8.68,2.59-6.19,4.52-12.44,6.28-18.91.82-2.08.65-4.29,2.2-6.39Z"/>
    <path d="M288.96,170.75c3.45,5,6.1,10.19,8.35,15.72,2.38,5.88,6.46,10.25,11.99,13.28,9.58,5.25,19.98,7.93,30.86,9l17.34,2.33c-5.35,1.83-10.51,2.09-15.72,2.77l-3.93-.06c-11.01-.77-21.58-4.36-30.85-10.29-5.52-3.53-9.39-8.54-11.47-14.74-1.81-5.39-3.72-10.52-6.2-15.63-.36-.74-.67-1.5-.37-2.38Z"/>
    <path d="M294.11,218c.61-.04,1.17,1.03,1.01,1.47-1.68.53-3.15,1.19-4.4,2.39l-5.15,4.93c-3.42,3.28-6.29,6.8-8.88,10.81-4.4,6.83-9.13,13.19-14.79,19.02-4.68,4.83-9.45,9.36-15.26,12.81-4.29,2.55-8.69,4.86-13.72,6.26l13.69-11.54c4.38-3.69,8.48-7.21,12.43-11.37,5.29-5.57,9.94-11.45,14.44-17.68,2.48-3.43,4.95-6.64,8.27-9.25l7.39-5.82c1.42-1.12,3.03-1.9,4.97-2.03Z"/>
    <path d="M122.33,133.81c-.03-.81.04-1.47.47-2.16l2.97,8.26c2.77,7.72-.45,17.48-4.06,24.76-3.8,7.66-7.77,15-12.26,22.25-6.49,10.48.9,20.5.17,22.36-.09.23-.76.37-.99.27-.28-.12-.49-.55-.68-.96-1.17-2.55-2.35-4.96-3.11-7.65-1.48-5.19-1.2-10.41,1.2-15.23l4.47-8.95,7.51-16.26c2.26-4.91,3.31-9.91,3.76-15.28.32-3.82.71-7.43.55-11.41Z"/>
    <path d="M291.2,202.68c2.6,0,4.85,1.32,6.73,2.88l10,8.24,3.1,2.88c3.73,3.46,7.51,6.27,12.37,7.84,3.66,1.18,7.23,2.25,11.13,2.34,7.56.18,11.29-1.9,17.3-6.22.06,1.52-1.28,2.18-2.22,2.98-7.64,6.46-17.21,6.29-26.6,3.91-5.22-1.32-9.71-3.59-13.8-7.1-2.89-2.48-5.93-4.59-9.01-6.82l-4.61-3.33c-1.35-.98-3.18-1.9-4.94-1.74l-11.05,6.89c.91-2.98,2.1-5.28,3.49-7.71,1.63-2.87,4.6-5.02,8.11-5.03Z"/>
    <path d="M153.97,231.51c.18,1.81-2.52,5.28-1.62,10.67.63,3.73,1.7,7.33,3.47,10.68s4.72,6,8.12,7.71l4.47,2.25c13.57,6.83,31.54.48,46.72-.35-3.91,2.29-7.84,3.69-11.94,5.01-8.96,2.88-23.16,4.55-31.74,1.16-4.05-1.6-7.79-3.64-11.29-6.2-6.26-4.58-8.6-11.36-9.63-18.89-.57-4.19.5-8.12,2.48-11.74l.09-.68c.03-.21.84.17.86.37Z"/>
    <path d="M109.39,223.8l-3.09-2.85c-.07-.07.23-.76.23-.66l9.43,1.14,11.84,3.3c6.32,1.76,11.14,6.13,14,11.94,1.84,3.75,2.36,7.64.91,11.65l-1.65,4.55c-.36,1-.08,1.92.61,2.63,1.74,1.81,3.11,3.72,4.14,6.1l-.77.09c-1.44-1.88-3.19-3.69-5.04-5.2-1.15-.95-1.83-2.28-1.55-3.81l.87-4.87c.45-2.54.29-4.97-.9-7.34-1.78-3.57-4.79-6.64-8.58-8.14l-9.99-2.96c-3.94-1.17-7.35-2.7-10.46-5.57Z"/>
    <path d="M143.49,6.46c1.44.03.64,1.93,2.19,4.58l3.55,6.08c4.57,7.84,6.74,18.13,4.27,26.96-1.65,5.9-3.72,11.49-6.06,17.15l-6.56,10.06c-.25.12-.67.2-.98.18l2.99-12.81,5.59-15.77c2.68-7.56,1.44-16.68-1.8-23.94l-3.04-6.8c-.77-1.73-.98-3.75-.15-5.68Z"/>
    <path d="M95.67,193.64c1.01,1.79.77,3.61.9,5.46l1.03,13.82c.49,6.54,2.6,14.57,8.06,18.37l9.77,6.78,6.34,4.69,5.21,6.79c-2.64-.42-4.86-1.22-7.2-2.16-1.85-.75-3.42-1.94-5.08-3.07-3.82-2.62-7.5-5.17-10.96-8.21-3.99-3.52-6.54-7.83-7.64-13.06-1.04-4.95-1.24-9.87-1.04-14.96l.59-14.43Z"/>
    <path d="M102.96,128.38c-.79-3.07-2.72-8.41-.97-9.92.64.45,1.07,1.19,1.31,1.87l1.93,5.32,5.17,12.58c2.68,8.28,1.99,17.09-2.59,24.57-1.8,2.93-4.19,5.37-6.83,7.95-.06-2.3.67-4.06,1.08-6.07.55-2.74,1.3-5.35,2.38-7.94,2.2-5.24,2.72-10.73,1.62-16.36l-3.11-12.01Z"/>
    <path d="M344.71,234.73c.16,0,.65.26.6.38s-.26.38-.44.45l-5.91,2.37c-5.11,2.05-10.49,2.42-15.94,1.58l-8.15-1.26c-2.19-.34-4.21-.08-6.25.77-2.49,1.04-4.85,2.23-7.14,3.67-1.76,1.11-3.09,2.78-3.62,4.8l-1.56,5.96c-.41-2.33.03-4.54.58-6.71.69-2.71,2.22-4.94,4.41-6.63,4.13-3.2,8.93-6.36,14.29-5.83l9.58.96c2.03.2,3.96.06,6-.02l13.53-.49Z"/>
    <path d="M125.17,14.4c-1.61-2.48-2.64-5.07-3.49-8.13,4.43,2.98,8.14,8.64,10.12,13.58,1.56,3.9,1.6,7.99,1.26,12.14-.04.53-.46.89-.96.88-.39,0-.74-.54-.75-1.04-.05-3.74-.4-7.36-1.95-10.77-1.1-2.42-2.75-4.36-4.25-6.66Z"/>
    <polygon points="154.61 223.59 157.54 224.19 156.35 226.77 154.61 223.59"/>
    <path d="M303.76,322.5c-.03.08-.36-.02-.42-.07-.09-.08-.24-.29-.13-.34l.53-.23c.11-.05.06.53.02.64Z"/>
    <path d="M353,122.9c.53.07.93.29,1.24.67-.53-.06-.93-.29-1.24-.67Z"/>
    <path d="M235.68,149.88c.34-.16.53-.12.23.18-.16.19-.34.41-.35.4,0-.02-.24-.21-.29-.27-.08-.09.15-.18.42-.31Z"/>
    <path d="M199.87,38.61c0,.09-.45,0-.45-.09v-.47c.02-.09.4-.23.41-.14l.04.7Z"/>
  </g>
  <circle class="st0" cx="355.56" cy="355.31" r="4.69"/>
  <circle class="st0" cx="4.69" cy="355.31" r="4.69"/>
  <circle class="st0" cx="5" cy="4.75" r="4.75"/>
</svg>